<svg width="232" height="211" viewBox="0 0 232 211" fill="none" xmlns="http://www.w3.org/2000/svg">
<path fill-rule="evenodd" clip-rule="evenodd" d="M61.5669 200.038C47.7132 213.935 25.2485 213.933 11.3903 200.033C-2.46343 186.135 -2.46343 163.601 11.3903 149.704C25.2476 135.81 47.7077 135.807 61.5605 149.704C75.4179 163.606 75.4179 186.142 61.5669 200.038Z" fill="#DA322A"/>
<path fill-rule="evenodd" clip-rule="evenodd" d="M61.5669 200.038C47.7132 213.935 25.2485 213.933 11.3903 200.033C-2.46343 186.135 -2.46343 163.601 11.3903 149.704C25.2476 135.81 47.7077 135.807 61.5605 149.704C75.4179 163.606 75.4179 186.142 61.5669 200.038Z" stroke="#DA322A" stroke-width="0.737374"/>
<path fill-rule="evenodd" clip-rule="evenodd" d="M11.8834 181.423H8.10211L13.5358 167.213H16.3675L21.8066 181.425H17.9846L17.2819 179.363H12.5997L11.8834 181.423ZM14.9512 171.869L13.5358 176.427H16.3458L14.9512 171.869Z" fill="#FFFFFE"/>
<path fill-rule="evenodd" clip-rule="evenodd" d="M25.9883 167.213V181.423L22.86 181.425V167.213H25.9883Z" fill="#FFFFFE"/>
<path fill-rule="evenodd" clip-rule="evenodd" d="M30.9323 184.902H27.7849V170.69H30.7749V171.952C31.6892 170.969 32.6633 170.592 34 170.592C35.2933 170.592 36.4121 171.009 37.349 171.848C38.5845 172.951 39.2193 174.388 39.2193 176.065C39.2193 177.608 38.6261 179.006 37.51 180.085C36.5134 181.063 35.2933 181.545 33.9403 181.542C32.6443 181.542 31.6513 181.106 30.9323 180.185V184.902ZM33.404 178.744C34.899 178.744 36.0747 177.525 36.0747 176.089C36.072 174.59 34.918 173.448 33.3063 173.448C31.9506 173.448 30.812 174.568 30.812 176.045C30.812 177.585 31.9289 178.744 33.404 178.744Z" fill="#FFFFFE"/>
<path fill-rule="evenodd" clip-rule="evenodd" d="M40.5862 181.422V167.21H43.597V172.028C44.2536 170.99 45.2494 170.49 46.606 170.49C48.8191 170.49 50.2508 171.888 50.2508 174.346V181.422H47.1034V175.605C47.1034 174.109 46.7823 173.426 45.5686 173.426C44.3323 173.426 43.673 174.169 43.6766 175.605L43.673 181.422H40.5862Z" fill="#FFFFFE"/>
<path fill-rule="evenodd" clip-rule="evenodd" d="M59.9587 180.224C59.0199 181.144 58.0639 181.483 56.7896 181.483C55.4936 181.483 54.3776 181.065 53.4415 180.224C52.2052 179.126 51.5685 177.687 51.5685 176.007C51.5685 174.467 52.1672 173.087 53.2832 172.009C54.2772 171.032 55.4936 170.529 56.8502 170.529C58.1426 170.529 59.1393 170.972 59.8556 171.889L59.8583 170.693H63.0047V181.422H59.9587V180.224ZM57.4869 178.623C58.8426 178.623 59.9777 177.507 59.9777 176.026C59.975 174.489 58.8426 173.328 57.3666 173.331C55.8698 173.331 54.7158 174.549 54.7158 175.988C54.7176 177.485 55.8698 178.623 57.4869 178.623Z" fill="#FFFFFE"/>
<path fill-rule="evenodd" clip-rule="evenodd" d="M74.4927 30.6904L79.0573 26.146C113.959 -8.58787 165.771 -7.25422 202.816 29.6226C235.3 61.955 241.345 110.003 212.698 138.743C204.131 147.337 192.886 153.783 180.837 156.739C169.324 159.691 162.095 159.961 138.264 159.155C111.221 158.35 101.587 159.961 92.7482 167.214L51.2512 125.583C64.6374 111.614 82.8422 106.779 118.186 107.855C142.011 108.124 153.526 105.171 161.291 97.3802C170.931 87.7108 171.467 77.5034 162.362 68.3719C150.849 56.8236 139.871 58.7025 122.736 75.3568L74.4927 30.6904Z" fill="#DA322A"/>
<path fill-rule="evenodd" clip-rule="evenodd" d="M74.4927 30.6904L79.0573 26.146C113.959 -8.58787 165.771 -7.25422 202.816 29.6226C235.3 61.955 241.345 110.003 212.698 138.743C204.131 147.337 192.886 153.783 180.837 156.739C169.324 159.691 162.095 159.961 138.264 159.155C111.221 158.35 101.587 159.961 92.7482 167.214L51.2512 125.583C64.6374 111.614 82.8422 106.779 118.186 107.855C142.011 108.124 153.526 105.171 161.291 97.3802C170.931 87.7108 171.467 77.5034 162.362 68.3719C150.849 56.8236 139.871 58.7025 122.736 75.3568L74.4927 30.6904Z" stroke="#DA322A" stroke-width="0.737374"/>
</svg>
