<svg xmlns="http://www.w3.org/2000/svg" width="1037" height="337" viewBox="0 0 1037 337" fill="none">
  <g clip-path="url(#clip0)">
    <path fill-rule="evenodd" clip-rule="evenodd" d="M254.818 175.199C252.366 175.199 250.017 174.716 247.766 173.75C245.519 172.783 243.526 171.391 241.789 169.574C240.069 167.757 238.699 165.539 237.676 162.917C236.652 160.298 236.141 157.343 236.141 154.056C236.141 150.771 236.643 147.788 237.647 145.109C238.65 142.431 240.041 140.127 241.815 138.194C243.571 136.28 245.647 134.798 248.042 133.754C250.435 132.711 252.992 132.19 255.714 132.19C257.742 132.19 259.574 132.441 261.216 132.943C262.856 133.446 264.42 134.151 265.905 135.059L267.094 133.088H269.411L269.672 147.751H267.296C266.988 146.323 266.524 144.772 265.905 143.102C265.289 141.432 264.564 140.016 263.735 138.856C262.808 137.541 261.709 136.512 260.434 135.768C259.163 135.025 257.704 134.654 256.066 134.654C254.192 134.654 252.45 135.07 250.84 135.9C249.229 136.731 247.833 137.96 246.657 139.585C245.537 141.15 244.66 143.142 244.024 145.56C243.387 147.976 243.067 150.672 243.067 153.651C243.067 156.28 243.4 158.694 244.066 160.886C244.732 163.083 245.683 165.01 246.918 166.675C248.152 168.316 249.615 169.602 251.305 170.533C252.99 171.461 254.879 171.923 256.962 171.923C258.528 171.923 259.962 171.676 261.277 171.185C262.588 170.692 263.727 170.04 264.694 169.228C265.658 168.379 266.507 167.413 267.241 166.33C267.973 165.248 268.573 164.07 269.035 162.794L271.209 163.836C269.548 167.915 267.347 170.827 264.606 172.576C261.865 174.324 258.604 175.199 254.818 175.199Z" fill="black"></path>
    <path fill-rule="evenodd" clip-rule="evenodd" d="M299.596 157.405L293.368 141.446L287.229 157.405H299.596ZM316.143 174.215H299.049V172.156C300.555 172.059 301.807 171.867 302.802 171.576C303.797 171.287 304.293 170.931 304.293 170.503C304.293 170.33 304.274 170.119 304.236 169.868C304.196 169.615 304.139 169.394 304.063 169.198L300.656 159.985H286.221C285.679 161.338 285.239 162.515 284.9 163.52C284.562 164.524 284.257 165.452 283.985 166.301C283.734 167.132 283.561 167.81 283.464 168.329C283.365 168.854 283.32 169.276 283.32 169.605C283.32 170.378 283.926 170.979 285.144 171.403C286.361 171.827 287.733 172.078 289.261 172.156V174.215H273.771V172.156C274.276 172.118 274.903 172.008 275.657 171.822C276.41 171.641 277.026 171.394 277.512 171.084C278.282 170.562 278.883 170.016 279.307 169.447C279.732 168.875 280.148 168.089 280.555 167.085C282.621 161.925 284.902 156.129 287.393 149.695C289.887 143.261 292.109 137.535 294.059 132.509H296.378L310.086 167.985C310.375 168.736 310.704 169.345 311.072 169.809C311.439 170.273 311.951 170.726 312.607 171.171C313.052 171.443 313.63 171.669 314.346 171.852C315.061 172.037 315.66 172.137 316.143 172.156V174.215Z" fill="black"></path>
    <path fill-rule="evenodd" clip-rule="evenodd" d="M354.032 144.246H352.033C351.858 143.55 351.542 142.724 351.087 141.769C350.633 140.81 350.125 139.908 349.563 139.058C348.981 138.17 348.346 137.393 347.659 136.726C346.972 136.058 346.308 135.678 345.669 135.579C345.07 135.504 344.315 135.445 343.405 135.407C342.494 135.367 341.651 135.348 340.879 135.348H339.194V168.243C339.194 168.88 339.327 169.466 339.599 169.997C339.869 170.529 340.341 170.936 341.02 171.227C341.366 171.364 342.095 171.547 343.206 171.779C344.317 172.011 345.182 172.137 345.802 172.156V174.214H326.385V172.156C326.925 172.118 327.749 172.04 328.86 171.924C329.971 171.806 330.739 171.661 331.165 171.488C331.803 171.239 332.271 170.875 332.569 170.402C332.87 169.93 333.02 169.297 333.02 168.503V135.348H331.339C330.739 135.348 329.995 135.364 329.107 135.394C328.217 135.421 327.368 135.485 326.556 135.579C325.919 135.657 325.259 136.041 324.572 136.726C323.885 137.411 323.253 138.189 322.673 139.058C322.095 139.927 321.581 140.852 321.138 141.826C320.693 142.802 320.383 143.609 320.21 144.246H318.182V133.088H354.032V144.246Z" fill="black"></path>
    <path fill-rule="evenodd" clip-rule="evenodd" d="M402.847 174.214H385.777V172.156C386.241 172.118 386.913 172.059 387.791 171.981C388.67 171.905 389.273 171.789 389.603 171.635C390.183 171.402 390.607 171.049 390.879 170.577C391.147 170.103 391.284 169.489 391.284 168.735V154.1H371.954V168.418C371.954 169.095 372.064 169.662 372.285 170.128C372.51 170.592 372.947 170.997 373.605 171.343C373.934 171.517 374.517 171.692 375.359 171.867C376.198 172.04 376.86 172.137 377.344 172.156V174.214H360.273V172.156C360.738 172.118 361.409 172.059 362.288 171.981C363.165 171.905 363.77 171.789 364.099 171.635C364.677 171.402 365.104 171.049 365.376 170.577C365.644 170.103 365.779 169.489 365.779 168.735V139.058C365.779 138.44 365.653 137.877 365.402 137.363C365.151 136.849 364.717 136.45 364.099 136.159C363.576 135.91 362.944 135.687 362.201 135.495C361.457 135.301 360.814 135.185 360.273 135.145V133.088H377.344V135.145C376.801 135.166 376.141 135.253 375.359 135.407C374.577 135.561 373.992 135.706 373.605 135.841C372.947 136.073 372.51 136.459 372.285 137.002C372.064 137.542 371.954 138.132 371.954 138.767V151.519H391.284V139.058C391.284 138.44 391.157 137.877 390.906 137.363C390.656 136.849 390.221 136.45 389.603 136.159C389.081 135.91 388.448 135.687 387.704 135.495C386.96 135.301 386.317 135.185 385.777 135.145V133.088H402.847V135.145C402.307 135.166 401.645 135.253 400.863 135.407C400.081 135.561 399.495 135.706 399.109 135.841C398.451 136.073 398.013 136.459 397.79 137.002C397.568 137.542 397.458 138.132 397.458 138.767V168.418C397.458 169.095 397.568 169.662 397.79 170.128C398.013 170.592 398.451 170.997 399.109 171.343C399.438 171.517 400.022 171.692 400.863 171.867C401.702 172.04 402.364 172.137 402.847 172.156V174.214Z" fill="black"></path>
    <path fill-rule="evenodd" clip-rule="evenodd" d="M440.505 167.115C441.587 165.357 442.373 163.365 442.867 161.143C443.36 158.921 443.605 156.438 443.605 153.693C443.605 150.874 443.33 148.285 442.78 145.928C442.228 143.571 441.421 141.562 440.36 139.899C439.297 138.259 437.965 136.977 436.359 136.058C434.756 135.141 432.92 134.683 430.852 134.683C428.535 134.683 426.566 135.215 424.941 136.277C423.318 137.338 421.994 138.759 420.971 140.536C420.004 142.237 419.283 144.227 418.812 146.508C418.338 148.787 418.1 151.184 418.1 153.693C418.1 156.476 418.351 158.988 418.855 161.229C419.358 163.473 420.151 165.461 421.231 167.2C422.276 168.901 423.588 170.227 425.173 171.186C426.756 172.141 428.651 172.62 430.852 172.62C432.92 172.62 434.786 172.137 436.447 171.17C438.109 170.206 439.462 168.853 440.505 167.115ZM444.823 137.957C446.638 139.853 448.057 142.136 449.082 144.813C450.108 147.488 450.62 150.45 450.62 153.693C450.62 156.96 450.098 159.923 449.054 162.593C448.011 165.258 446.562 167.529 444.707 169.403C442.909 171.256 440.824 172.687 438.448 173.691C436.07 174.697 433.54 175.2 430.852 175.2C427.994 175.2 425.352 174.663 422.926 173.59C420.503 172.517 418.42 171.026 416.681 169.112C414.942 167.24 413.574 164.963 412.581 162.288C411.586 159.612 411.088 156.747 411.088 153.693C411.088 150.353 411.609 147.373 412.654 144.754C413.696 142.136 415.136 139.87 416.972 137.957C418.787 136.064 420.899 134.616 423.305 133.61C425.708 132.607 428.227 132.101 430.852 132.101C433.578 132.101 436.148 132.615 438.562 133.64C440.978 134.664 443.063 136.104 444.823 137.957Z" fill="black"></path>
    <path fill-rule="evenodd" clip-rule="evenodd" d="M491.762 161.982L490.893 174.214H458.754V172.156C459.216 172.118 459.886 172.049 460.767 171.952C461.646 171.857 462.258 171.732 462.606 171.576C463.186 171.326 463.607 170.957 463.868 170.474C464.128 169.993 464.259 169.373 464.259 168.619V139.174C464.259 138.518 464.149 137.939 463.925 137.435C463.702 136.933 463.264 136.528 462.606 136.218C462.163 135.986 461.539 135.759 460.738 135.539C459.935 135.316 459.273 135.185 458.754 135.145V133.088H476.113V135.145C475.571 135.166 474.871 135.261 474.011 135.434C473.151 135.609 472.529 135.765 472.143 135.898C471.485 136.132 471.036 136.528 470.794 137.087C470.553 137.648 470.431 138.248 470.431 138.885V166.504C470.431 167.778 470.494 168.771 470.621 169.475C470.745 170.179 471.041 170.725 471.506 171.111C471.949 171.461 472.611 171.688 473.49 171.794C474.369 171.899 475.6 171.952 477.184 171.952C477.9 171.952 478.643 171.933 479.416 171.895C480.188 171.857 480.924 171.779 481.619 171.661C482.296 171.547 482.918 171.387 483.489 171.186C484.058 170.982 484.478 170.725 484.75 170.417C485.541 169.529 486.464 168.18 487.518 166.374C488.568 164.569 489.299 163.104 489.704 161.982H491.762Z" fill="black"></path>
    <path fill-rule="evenodd" clip-rule="evenodd" d="M515.504 174.214H496.982V172.156C497.506 172.118 498.259 172.059 499.244 171.981C500.228 171.905 500.924 171.789 501.329 171.635C501.967 171.383 502.431 171.041 502.722 170.607C503.011 170.172 503.156 169.567 503.156 168.792V139.001C503.156 138.326 503.051 137.761 502.836 137.306C502.625 136.849 502.121 136.469 501.329 136.159C500.751 135.929 500.021 135.712 499.142 135.508C498.263 135.305 497.544 135.185 496.982 135.145V133.088H515.504V135.145C514.903 135.166 514.188 135.238 513.358 135.364C512.527 135.491 511.802 135.651 511.184 135.841C510.449 136.073 509.959 136.45 509.707 136.973C509.454 137.492 509.329 138.073 509.329 138.712V168.473C509.329 169.112 509.47 169.677 509.749 170.172C510.031 170.662 510.508 171.054 511.184 171.343C511.591 171.498 512.253 171.669 513.17 171.851C514.087 172.036 514.865 172.137 515.504 172.156V174.214Z" fill="black"></path>
    <path fill-rule="evenodd" clip-rule="evenodd" d="M541.73 175.199C539.278 175.199 536.927 174.716 534.678 173.75C532.43 172.783 530.436 171.391 528.699 169.574C526.981 167.757 525.609 165.539 524.586 162.917C523.563 160.298 523.051 157.343 523.051 154.056C523.051 150.771 523.553 147.788 524.557 145.109C525.562 142.431 526.951 140.127 528.727 138.194C530.483 136.28 532.557 134.798 534.952 133.754C537.345 132.711 539.904 132.19 542.624 132.19C544.652 132.19 546.486 132.441 548.126 132.943C549.766 133.446 551.332 134.151 552.817 135.059L554.005 133.088H556.324L556.582 147.751H554.206C553.898 146.323 553.434 144.772 552.817 143.102C552.201 141.432 551.476 140.016 550.645 138.856C549.72 137.541 548.621 136.512 547.346 135.768C546.073 135.025 544.614 134.654 542.976 134.654C541.104 134.654 539.362 135.07 537.751 135.9C536.139 136.731 534.745 137.96 533.569 139.585C532.449 141.15 531.57 143.142 530.934 145.56C530.297 147.976 529.977 150.672 529.977 153.651C529.977 156.28 530.312 158.694 530.976 160.886C531.642 163.083 532.593 165.01 533.828 166.675C535.064 168.316 536.525 169.602 538.215 170.533C539.902 171.461 541.789 171.923 543.874 171.923C545.438 171.923 546.874 171.676 548.187 171.185C549.5 170.692 550.637 170.04 551.604 169.228C552.568 168.379 553.417 167.413 554.151 166.33C554.885 165.248 555.483 164.07 555.945 162.794L558.119 163.836C556.459 167.915 554.259 170.827 551.516 172.576C548.777 174.324 545.514 175.199 541.73 175.199Z" fill="black"></path>
    <path fill-rule="evenodd" clip-rule="evenodd" d="M603.798 157.405L597.567 141.446L591.428 157.405H603.798ZM620.343 174.215H603.25V172.156C604.756 172.059 606.006 171.867 607.001 171.576C607.998 171.287 608.493 170.931 608.493 170.503C608.493 170.33 608.476 170.119 608.436 169.868C608.398 169.615 608.339 169.394 608.262 169.198L604.855 159.985H590.42C589.878 161.338 589.438 162.515 589.1 163.52C588.761 164.524 588.457 165.452 588.187 166.301C587.934 167.132 587.76 167.81 587.663 168.329C587.566 168.854 587.519 169.276 587.519 169.605C587.519 170.378 588.126 170.979 589.343 171.403C590.563 171.827 591.932 172.078 593.46 172.156V174.215H577.973V172.156C578.475 172.118 579.103 172.008 579.856 171.822C580.609 171.641 581.226 171.394 581.711 171.084C582.483 170.562 583.082 170.016 583.509 169.447C583.931 168.875 584.348 168.089 584.755 167.085C586.821 161.925 589.102 156.129 591.594 149.695C594.086 143.261 596.308 137.535 598.26 132.509H600.577L614.285 167.985C614.576 168.736 614.906 169.345 615.271 169.809C615.638 170.273 616.15 170.726 616.808 171.171C617.251 171.443 617.831 171.669 618.547 171.852C619.262 172.037 619.859 172.137 620.343 172.156V174.215Z" fill="black"></path>
    <path fill-rule="evenodd" clip-rule="evenodd" d="M649.594 143.567C649.594 141.078 648.879 139.106 647.45 137.648C646.02 136.193 644.001 135.464 641.391 135.464H636.466V153.086H640.263C642.928 153.086 645.15 152.232 646.929 150.526C648.706 148.817 649.594 146.5 649.594 143.567ZM664.84 174.214H653.764C651.312 170.369 649.098 167.046 647.119 164.244C645.141 161.443 642.993 158.554 640.678 155.576H636.466V168.619C636.466 169.296 636.57 169.89 636.785 170.402C636.997 170.915 637.451 171.305 638.146 171.576C638.494 171.713 639.103 171.836 639.972 171.952C640.841 172.068 641.576 172.137 642.177 172.156V174.214H624.787V172.156C625.249 172.118 625.921 172.049 626.8 171.952C627.679 171.857 628.293 171.732 628.639 171.576C629.22 171.326 629.642 170.957 629.901 170.474C630.161 169.993 630.293 169.373 630.293 168.619V138.885C630.293 138.208 630.196 137.608 630.003 137.087C629.809 136.566 629.355 136.17 628.639 135.898C628.156 135.725 627.528 135.567 626.756 135.421C625.984 135.276 625.327 135.185 624.787 135.145V133.088H643.769C645.508 133.088 647.14 133.269 648.668 133.625C650.192 133.982 651.575 134.557 652.811 135.348C654.008 136.123 654.965 137.133 655.68 138.377C656.395 139.623 656.753 141.126 656.753 142.884C656.753 144.468 656.511 145.869 656.028 147.086C655.545 148.304 654.83 149.358 653.884 150.244C653.015 151.077 651.97 151.796 650.753 152.403C649.537 153.014 648.194 153.53 646.725 153.956C648.755 156.642 650.439 158.902 651.782 160.738C653.125 162.573 654.773 164.805 656.724 167.432C657.573 168.591 658.343 169.447 659.028 169.997C659.711 170.546 660.396 170.997 661.071 171.343C661.574 171.595 662.201 171.789 662.955 171.924C663.708 172.059 664.336 172.137 664.84 172.156V174.214Z" fill="black"></path>
    <path fill-rule="evenodd" clip-rule="evenodd" d="M687.5 175.199C685.05 175.199 682.698 174.716 680.45 173.75C678.199 172.783 676.207 171.391 674.469 169.574C672.753 167.757 671.381 165.539 670.357 162.917C669.334 160.298 668.822 157.343 668.822 154.056C668.822 150.771 669.324 147.788 670.329 145.109C671.333 142.431 672.722 140.127 674.499 138.194C676.255 136.28 678.329 134.798 680.722 133.754C683.117 132.711 685.676 132.19 688.394 132.19C690.424 132.19 692.256 132.441 693.898 132.943C695.538 133.446 697.101 134.151 698.587 135.059L699.776 133.088H702.095L702.354 147.751H699.978C699.668 146.323 699.205 144.772 698.587 143.102C697.971 141.432 697.246 140.016 696.416 138.856C695.492 137.541 694.392 136.512 693.118 135.768C691.843 135.025 690.386 134.654 688.748 134.654C686.876 134.654 685.133 135.07 683.52 135.9C681.911 136.731 680.516 137.96 679.341 139.585C678.22 141.15 677.341 143.142 676.706 145.56C676.067 147.976 675.749 150.672 675.749 153.651C675.749 156.28 676.082 158.694 676.746 160.886C677.413 163.083 678.365 165.01 679.599 166.675C680.834 168.316 682.297 169.602 683.984 170.533C685.674 171.461 687.559 171.923 689.646 171.923C691.208 171.923 692.646 171.676 693.957 171.185C695.271 170.692 696.409 170.04 697.375 169.228C698.338 168.379 699.188 167.413 699.921 166.33C700.657 165.248 701.254 164.07 701.716 162.794L703.891 163.836C702.23 167.915 700.029 170.827 697.288 172.576C694.548 174.324 691.286 175.199 687.5 175.199Z" fill="black"></path>
    <path fill-rule="evenodd" clip-rule="evenodd" d="M753.054 174.214H735.984V172.156C736.448 172.118 737.12 172.059 737.999 171.981C738.879 171.905 739.48 171.789 739.812 171.635C740.392 171.402 740.814 171.049 741.086 170.577C741.356 170.103 741.491 169.489 741.491 168.735V154.1H722.159V168.418C722.159 169.095 722.271 169.662 722.492 170.128C722.715 170.592 723.154 170.997 723.812 171.343C724.142 171.517 724.726 171.692 725.566 171.867C726.405 172.04 727.067 172.137 727.551 172.156V174.214H710.48V172.156C710.945 172.118 711.616 172.059 712.493 171.981C713.374 171.905 713.977 171.789 714.308 171.635C714.886 171.402 715.311 171.049 715.581 170.577C715.853 170.103 715.986 169.489 715.986 168.735V139.058C715.986 138.44 715.86 137.877 715.611 137.363C715.358 136.849 714.924 136.45 714.308 136.159C713.783 135.91 713.151 135.687 712.41 135.495C711.664 135.301 711.023 135.185 710.48 135.145V133.088H727.551V135.145C727.01 135.166 726.35 135.253 725.566 135.407C724.783 135.561 724.199 135.706 723.812 135.841C723.154 136.073 722.715 136.459 722.492 137.002C722.271 137.542 722.159 138.132 722.159 138.767V151.519H741.491V139.058C741.491 138.44 741.364 137.877 741.115 137.363C740.864 136.849 740.428 136.45 739.812 136.159C739.286 135.91 738.655 135.687 737.913 135.495C737.167 135.301 736.526 135.185 735.984 135.145V133.088H753.054V135.145C752.516 135.166 751.854 135.253 751.07 135.407C750.288 135.561 749.702 135.706 749.316 135.841C748.658 136.073 748.22 136.459 747.997 137.002C747.775 137.542 747.665 138.132 747.665 138.767V168.418C747.665 169.095 747.775 169.662 747.997 170.128C748.22 170.592 748.658 170.997 749.316 171.343C749.645 171.517 750.229 171.692 751.07 171.867C751.909 172.04 752.571 172.137 753.054 172.156V174.214Z" fill="black"></path>
    <path fill-rule="evenodd" clip-rule="evenodd" d="M794.105 153.883C794.105 151.121 793.737 148.627 793.005 146.396C792.269 144.166 791.198 142.224 789.786 140.563C788.453 138.98 786.817 137.734 784.874 136.827C782.932 135.917 780.773 135.464 778.397 135.464C777.603 135.464 776.711 135.48 775.716 135.508C774.719 135.539 773.981 135.561 773.498 135.579V167.173C773.498 168.931 774.01 170.147 775.035 170.824C776.059 171.498 777.634 171.836 779.759 171.836C782.213 171.836 784.357 171.402 786.194 170.535C788.03 169.666 789.516 168.459 790.656 166.913C791.852 165.294 792.727 163.414 793.279 161.28C793.829 159.147 794.105 156.682 794.105 153.883ZM801.204 153.897C801.204 157.393 800.548 160.429 799.235 162.998C797.921 165.568 796.211 167.676 794.105 169.316C791.98 170.957 789.594 172.186 786.946 172.995C784.3 173.807 781.564 174.214 778.745 174.214H761.705V172.156C762.264 172.156 762.993 172.104 763.891 171.996C764.791 171.889 765.382 171.77 765.673 171.635C766.252 171.383 766.674 171.011 766.935 170.518C767.195 170.027 767.327 169.432 767.327 168.735V139.058C767.327 138.404 767.214 137.812 766.992 137.291C766.769 136.768 766.33 136.355 765.673 136.045C765.074 135.754 764.427 135.542 763.733 135.407C763.037 135.27 762.436 135.185 761.935 135.145V133.088H779.903C782.378 133.088 784.811 133.469 787.209 134.234C789.604 134.996 791.689 136.026 793.467 137.319C795.881 139.039 797.776 141.29 799.146 144.073C800.519 146.854 801.204 150.13 801.204 153.897Z" fill="black"></path>
    <path fill-rule="evenodd" clip-rule="evenodd" d="M827.211 174.214H808.693V172.156C809.213 172.118 809.968 172.059 810.952 171.981C811.937 171.905 812.633 171.789 813.04 171.635C813.676 171.383 814.14 171.041 814.429 170.607C814.72 170.172 814.865 169.567 814.865 168.792V139.001C814.865 138.326 814.758 137.761 814.545 137.306C814.334 136.849 813.832 136.469 813.04 136.159C812.46 135.929 811.73 135.712 810.853 135.508C809.972 135.305 809.253 135.185 808.693 135.145V133.088H827.211V135.145C826.614 135.166 825.897 135.238 825.067 135.364C824.236 135.491 823.511 135.651 822.895 135.841C822.158 136.073 821.666 136.45 821.415 136.973C821.164 137.492 821.038 138.073 821.038 138.712V168.473C821.038 169.112 821.177 169.677 821.458 170.172C821.738 170.662 822.216 171.054 822.895 171.343C823.3 171.498 823.96 171.669 824.879 171.851C825.796 172.036 826.572 172.137 827.211 172.156V174.214Z" fill="black"></path>
    <path fill-rule="evenodd" clip-rule="evenodd" d="M864.229 167.115C865.31 165.357 866.099 163.365 866.59 161.143C867.083 158.921 867.328 156.438 867.328 153.693C867.328 150.874 867.054 148.285 866.503 145.928C865.953 143.571 865.148 141.562 864.085 139.899C863.021 138.259 861.688 136.977 860.082 136.058C858.482 135.141 856.646 134.683 854.576 134.683C852.257 134.683 850.288 135.215 848.664 136.277C847.041 137.338 845.719 138.759 844.695 140.536C843.729 142.237 843.01 144.227 842.536 146.508C842.062 148.787 841.825 151.184 841.825 153.693C841.825 156.476 842.078 158.988 842.578 161.229C843.08 163.473 843.874 165.461 844.956 167.2C845.999 168.901 847.313 170.227 848.898 171.186C850.483 172.141 852.375 172.62 854.576 172.62C856.646 172.62 858.509 172.137 860.171 171.17C861.832 170.206 863.185 168.853 864.229 167.115ZM868.548 137.957C870.364 139.853 871.784 142.136 872.807 144.813C873.831 147.488 874.344 150.45 874.344 153.693C874.344 156.96 873.821 159.923 872.778 162.593C871.734 165.258 870.286 167.529 868.431 169.403C866.634 171.256 864.547 172.687 862.171 173.691C859.793 174.697 857.263 175.2 854.576 175.2C851.719 175.2 849.075 174.663 846.651 173.59C844.226 172.517 842.144 171.026 840.406 169.112C838.667 167.24 837.299 164.963 836.304 162.288C835.309 159.612 834.812 156.747 834.812 153.693C834.812 150.353 835.334 147.373 836.378 144.754C837.421 142.136 838.859 139.87 840.695 137.957C842.511 136.064 844.621 134.616 847.028 133.61C849.434 132.607 851.949 132.101 854.576 132.101C857.303 132.101 859.871 132.615 862.287 133.64C864.701 134.664 866.79 136.104 868.548 137.957Z" fill="black"></path>
    <path fill-rule="evenodd" clip-rule="evenodd" d="M900.576 175.199C898.124 175.199 895.773 174.716 893.524 173.75C891.275 172.783 889.282 171.391 887.545 169.574C885.827 167.757 884.455 165.539 883.432 162.917C882.41 160.298 881.896 157.343 881.896 154.056C881.896 150.771 882.399 147.788 883.403 145.109C884.408 142.431 885.796 140.127 887.573 138.194C889.329 136.28 891.405 134.798 893.798 133.754C896.191 132.711 898.75 132.19 901.47 132.19C903.498 132.19 905.332 132.441 906.972 132.943C908.612 133.446 910.177 134.151 911.663 135.059L912.85 133.088H915.169L915.43 147.751H913.052C912.744 146.323 912.28 144.772 911.663 143.102C911.047 141.432 910.322 140.016 909.493 138.856C908.566 137.541 907.466 136.512 906.194 135.768C904.919 135.025 903.462 134.654 901.822 134.654C899.95 134.654 898.209 135.07 896.596 135.9C894.985 136.731 893.59 137.96 892.415 139.585C891.294 141.15 890.417 143.142 889.78 145.56C889.143 147.976 888.823 150.672 888.823 153.651C888.823 156.28 889.158 158.694 889.822 160.886C890.488 163.083 891.439 165.01 892.675 166.675C893.91 168.316 895.371 169.602 897.06 170.533C898.748 171.461 900.635 171.923 902.72 171.923C904.284 171.923 905.722 171.676 907.033 171.185C908.345 170.692 909.485 170.04 910.449 169.228C911.414 168.379 912.262 167.413 912.997 166.33C913.731 165.248 914.328 164.07 914.791 162.794L916.965 163.836C915.304 167.915 913.105 170.827 910.362 172.576C907.622 174.324 904.36 175.199 900.576 175.199Z" fill="black"></path>
    <path fill-rule="evenodd" clip-rule="evenodd" d="M958.131 162.098L957.349 174.214H923.207V172.156C923.787 172.118 924.56 172.036 925.526 171.91C926.493 171.785 927.12 171.654 927.409 171.517C928.03 171.227 928.458 170.851 928.701 170.387C928.941 169.922 929.063 169.336 929.063 168.619V139.058C929.063 138.423 928.956 137.858 928.743 137.363C928.532 136.87 928.087 136.469 927.409 136.159C926.89 135.91 926.188 135.687 925.311 135.495C924.43 135.301 923.732 135.185 923.207 135.145V133.088H955.032V143H952.858C952.47 141.531 951.636 139.971 950.35 138.32C949.064 136.669 947.841 135.765 946.682 135.609C946.085 135.533 945.37 135.476 944.539 135.434C943.709 135.398 942.76 135.379 941.7 135.379H935.234V151.724H939.872C941.362 151.724 942.446 151.583 943.135 151.304C943.818 151.024 944.424 150.556 944.944 149.898C945.37 149.339 945.731 148.587 946.032 147.651C946.329 146.715 946.528 145.831 946.627 144.999H948.8V161.112H946.627C946.549 160.186 946.34 159.206 946.003 158.171C945.665 157.138 945.311 156.391 944.944 155.926C944.346 155.171 943.665 154.68 942.902 154.446C942.138 154.216 941.128 154.1 939.872 154.1H935.234V166.426C935.234 167.66 935.323 168.633 935.496 169.348C935.67 170.061 936.008 170.603 936.51 170.969C937.015 171.334 937.698 171.572 938.567 171.676C939.436 171.785 940.675 171.836 942.28 171.836C942.916 171.836 943.757 171.836 944.799 171.836C945.844 171.836 946.724 171.8 947.438 171.722C948.172 171.644 948.931 171.503 949.713 171.302C950.495 171.096 951.05 170.822 951.38 170.474C952.268 169.548 953.2 168.144 954.174 166.258C955.15 164.375 955.774 162.988 956.046 162.098H958.131Z" fill="black"></path>
    <path fill-rule="evenodd" clip-rule="evenodd" d="M990.891 155.346C991.76 156.312 992.401 157.372 992.818 158.519C993.234 159.67 993.442 161.009 993.442 162.531C993.442 166.167 992.099 169.161 989.414 171.516C986.728 173.875 983.395 175.053 979.415 175.053C977.58 175.053 975.744 174.767 973.91 174.199C972.074 173.628 970.487 172.937 969.154 172.125L967.908 174.242H965.589L965.186 160.157H967.533C968.016 161.896 968.581 163.465 969.228 164.866C969.873 166.266 970.729 167.576 971.791 168.792C972.799 169.933 973.971 170.843 975.314 171.516C976.657 172.195 978.215 172.53 979.996 172.53C981.327 172.53 982.492 172.357 983.488 172.011C984.481 171.661 985.288 171.168 985.906 170.531C986.523 169.892 986.985 169.142 987.284 168.28C987.582 167.42 987.731 166.427 987.731 165.305C987.731 163.661 987.268 162.128 986.342 160.705C985.412 159.284 984.032 158.205 982.197 157.471C980.941 156.971 979.501 156.417 977.876 155.81C976.256 155.205 974.855 154.633 973.674 154.094C971.357 153.05 969.555 151.682 968.273 149.995C966.987 148.305 966.344 146.098 966.344 143.374C966.344 141.809 966.664 140.349 967.299 138.997C967.938 137.644 968.844 136.44 970.025 135.377C971.144 134.372 972.468 133.585 973.994 133.016C975.521 132.447 977.115 132.162 978.776 132.162C980.671 132.162 982.366 132.451 983.863 133.031C985.36 133.609 986.728 134.287 987.965 135.059L989.152 133.088H991.471L991.703 146.738H989.355C988.931 145.172 988.452 143.675 987.921 142.244C987.388 140.816 986.698 139.522 985.847 138.361C985.018 137.243 984.004 136.349 982.804 135.683C981.607 135.015 980.14 134.682 978.401 134.682C976.566 134.682 975 135.27 973.704 136.45C972.411 137.629 971.764 139.067 971.764 140.768C971.764 142.547 972.177 144.019 973.01 145.187C973.84 146.357 975.048 147.316 976.632 148.071C978.042 148.747 979.431 149.333 980.791 149.825C982.155 150.32 983.473 150.845 984.748 151.404C985.906 151.906 987.021 152.477 988.096 153.113C989.167 153.752 990.097 154.496 990.891 155.346Z" fill="black"></path>
    <path fill-rule="evenodd" clip-rule="evenodd" d="M1036.14 162.098L1035.36 174.214H1001.22V172.156C1001.8 172.118 1002.57 172.036 1003.54 171.91C1004.5 171.785 1005.13 171.654 1005.42 171.517C1006.04 171.227 1006.47 170.851 1006.71 170.387C1006.95 169.922 1007.07 169.336 1007.07 168.619V139.058C1007.07 138.423 1006.97 137.858 1006.75 137.363C1006.54 136.87 1006.1 136.469 1005.42 136.159C1004.9 135.91 1004.2 135.687 1003.32 135.495C1002.44 135.301 1001.74 135.185 1001.22 135.145V133.088H1033.04V143H1030.87C1030.48 141.531 1029.64 139.971 1028.36 138.32C1027.07 136.669 1025.85 135.765 1024.69 135.609C1024.09 135.533 1023.38 135.476 1022.55 135.434C1021.72 135.398 1020.77 135.379 1019.71 135.379H1013.25V151.724H1017.88C1019.37 151.724 1020.46 151.583 1021.14 151.304C1021.83 151.024 1022.43 150.556 1022.96 149.898C1023.38 149.339 1023.74 148.587 1024.04 147.651C1024.34 146.715 1024.54 145.831 1024.64 144.999H1026.81V161.112H1024.64C1024.56 160.186 1024.35 159.206 1024.01 158.171C1023.67 157.138 1023.32 156.391 1022.96 155.926C1022.35 155.171 1021.68 154.68 1020.91 154.446C1020.15 154.216 1019.14 154.1 1017.88 154.1H1013.25V166.426C1013.25 167.66 1013.33 168.633 1013.51 169.348C1013.68 170.061 1014.02 170.603 1014.52 170.969C1015.02 171.334 1015.71 171.572 1016.58 171.676C1017.45 171.785 1018.68 171.836 1020.29 171.836C1020.93 171.836 1021.77 171.836 1022.81 171.836C1023.85 171.836 1024.73 171.8 1025.45 171.722C1026.18 171.644 1026.94 171.503 1027.72 171.302C1028.5 171.096 1029.06 170.822 1029.39 170.474C1030.28 169.548 1031.21 168.144 1032.19 166.258C1033.16 164.375 1033.78 162.988 1034.06 162.098H1036.14Z" fill="black"></path>
    <path fill-rule="evenodd" clip-rule="evenodd" d="M265.557 236.091C266.638 234.333 267.425 232.341 267.918 230.119C268.411 227.897 268.658 225.414 268.658 222.669C268.658 219.85 268.382 217.261 267.831 214.904C267.281 212.547 266.474 210.538 265.413 208.875C264.349 207.235 263.016 205.953 261.412 205.034C259.808 204.117 257.974 203.659 255.906 203.659C253.587 203.659 251.617 204.191 249.994 205.253C248.371 206.314 247.045 207.735 246.022 209.512C245.057 211.213 244.338 213.203 243.864 215.484C243.389 217.763 243.155 220.16 243.155 222.669C243.155 225.452 243.404 227.964 243.908 230.205C244.41 232.449 245.202 234.437 246.284 236.176C247.327 237.877 248.639 239.203 250.224 240.162C251.809 241.117 253.702 241.596 255.906 241.596C257.974 241.596 259.837 241.113 261.499 240.146C263.16 239.182 264.513 237.829 265.557 236.091ZM269.874 206.933C271.691 208.829 273.112 211.112 274.135 213.789C275.159 216.464 275.67 219.426 275.67 222.669C275.67 225.936 275.149 228.9 274.107 231.569C273.062 234.234 271.613 236.505 269.76 238.379C267.964 240.232 265.875 241.663 263.499 242.667C261.123 243.674 258.591 244.176 255.906 244.176C253.047 244.176 250.403 243.639 247.979 242.566C245.554 241.493 243.474 240.002 241.734 238.088C239.995 236.216 238.629 233.939 237.632 231.264C236.637 228.588 236.141 225.723 236.141 222.669C236.141 219.329 236.662 216.35 237.704 213.73C238.749 211.112 240.187 208.847 242.025 206.933C243.84 205.04 245.949 203.592 248.356 202.586C250.762 201.583 253.277 201.077 255.906 201.077C258.629 201.077 261.199 201.591 263.615 202.616C266.029 203.64 268.118 205.08 269.874 206.933Z" fill="black"></path>
    <path fill-rule="evenodd" clip-rule="evenodd" d="M315.698 212.353H313.526C313.121 210.827 312.274 209.193 310.99 207.454C309.704 205.715 308.471 204.76 307.294 204.585C306.696 204.509 305.985 204.452 305.165 204.41C304.341 204.374 303.411 204.355 302.366 204.355H295.468V220.875H300.205C301.64 220.875 302.753 220.725 303.548 220.424C304.341 220.124 305.018 219.667 305.581 219.047C305.968 218.623 306.321 217.961 306.639 217.063C306.959 216.163 307.168 215.204 307.267 214.179H309.439V230.349H307.267C307.206 229.501 307.008 228.536 306.67 227.452C306.329 226.369 305.968 225.587 305.581 225.104C304.999 224.389 304.267 223.902 303.388 223.643C302.505 223.381 301.446 223.249 300.205 223.249H295.468V237.398C295.468 238.037 295.596 238.605 295.847 239.108C296.098 239.608 296.543 240.013 297.18 240.321C297.47 240.457 298.097 240.62 299.064 240.812C300.03 241.006 300.765 241.113 301.265 241.132V243.19H283.441V241.132C284.022 241.094 284.794 241.031 285.76 240.942C286.727 240.858 287.355 240.746 287.644 240.611C288.224 240.36 288.646 239.987 288.905 239.494C289.166 239.003 289.297 238.408 289.297 237.711V208.034C289.297 207.399 289.19 206.834 288.977 206.339C288.764 205.846 288.321 205.445 287.644 205.135C287.124 204.886 286.422 204.663 285.544 204.471C284.665 204.277 283.965 204.161 283.441 204.121V202.064H315.698V212.353Z" fill="black"></path>
    <path fill-rule="evenodd" clip-rule="evenodd" d="M389.102 243.19H370.93V241.132C371.587 241.113 372.431 241.044 373.466 240.928C374.499 240.812 375.209 240.649 375.597 240.438C376.194 240.068 376.634 239.65 376.915 239.176C377.195 238.703 377.336 238.107 377.336 237.394V207.484H376.9L362.874 242.523H361.424L348.064 206.76H347.687V231.308C347.687 233.682 347.837 235.491 348.136 236.726C348.435 237.963 348.893 238.853 349.513 239.393C349.938 239.798 350.817 240.184 352.15 240.552C353.484 240.921 354.353 241.113 354.758 241.132V243.19H338.152V241.132C339.022 241.054 339.933 240.909 340.89 240.698C341.847 240.485 342.587 240.165 343.108 239.741C343.785 239.199 344.248 238.37 344.499 237.249C344.75 236.127 344.875 234.255 344.875 231.626V210.585C344.875 209.368 344.731 208.373 344.442 207.598C344.151 206.828 343.734 206.2 343.194 205.715C342.596 205.194 341.862 204.808 340.993 204.555C340.123 204.307 339.263 204.161 338.413 204.121V202.064H352.435L364.215 232.933L374.271 207.11C374.64 206.164 374.952 205.173 375.213 204.138C375.473 203.103 375.614 202.413 375.633 202.064H389.045V204.121C388.503 204.142 387.812 204.229 386.971 204.383C386.132 204.538 385.518 204.682 385.132 204.817C384.475 205.049 384.03 205.435 383.798 205.978C383.566 206.518 383.45 207.108 383.45 207.743V237.394C383.45 238.071 383.566 238.638 383.798 239.104C384.03 239.568 384.475 239.973 385.132 240.32C385.48 240.514 386.098 240.694 386.987 240.858C387.875 241.02 388.581 241.113 389.102 241.132V243.19Z" fill="black"></path>
    <path fill-rule="evenodd" clip-rule="evenodd" d="M432.184 231.074L431.402 243.19H397.26V241.132C397.84 241.094 398.612 241.012 399.579 240.886C400.545 240.761 401.173 240.63 401.462 240.493C402.08 240.203 402.51 239.827 402.752 239.363C402.994 238.898 403.113 238.312 403.113 237.595V208.034C403.113 207.399 403.009 206.834 402.794 206.339C402.583 205.846 402.139 205.445 401.462 205.135C400.941 204.886 400.241 204.663 399.362 204.471C398.481 204.277 397.783 204.161 397.26 204.121V202.064H429.083V211.976H426.908C426.52 210.507 425.687 208.947 424.401 207.296C423.115 205.645 421.894 204.741 420.735 204.585C420.136 204.509 419.421 204.452 418.589 204.41C417.76 204.374 416.812 204.355 415.751 204.355H409.289V220.7H413.925C415.412 220.7 416.501 220.559 417.185 220.28C417.87 220 418.475 219.532 418.996 218.874C419.421 218.315 419.782 217.563 420.083 216.627C420.383 215.691 420.579 214.807 420.678 213.975H422.851V230.089H420.678C420.6 229.162 420.391 228.182 420.054 227.147C419.716 226.114 419.362 225.367 418.996 224.903C418.397 224.147 417.716 223.657 416.953 223.423C416.189 223.192 415.18 223.076 413.925 223.076H409.289V235.402C409.289 236.637 409.374 237.609 409.547 238.324C409.722 239.037 410.061 239.58 410.561 239.945C411.065 240.31 411.75 240.548 412.62 240.652C413.491 240.761 414.726 240.812 416.331 240.812C416.968 240.812 417.807 240.812 418.852 240.812C419.894 240.812 420.775 240.776 421.489 240.698C422.223 240.62 422.982 240.479 423.764 240.278C424.546 240.072 425.101 239.798 425.43 239.45C426.319 238.524 427.251 237.12 428.227 235.234C429.201 233.351 429.825 231.964 430.097 231.074H432.184Z" fill="black"></path>
    <path fill-rule="evenodd" clip-rule="evenodd" d="M472.362 230.958L471.492 243.19H439.352V241.132C439.816 241.094 440.487 241.025 441.366 240.928C442.245 240.833 442.86 240.708 443.208 240.552C443.786 240.302 444.206 239.933 444.467 239.45C444.728 238.969 444.859 238.349 444.859 237.595V208.15C444.859 207.494 444.747 206.915 444.526 206.411C444.303 205.909 443.862 205.504 443.208 205.194C442.761 204.962 442.139 204.735 441.338 204.515C440.535 204.292 439.875 204.161 439.352 204.121V202.064H456.711V204.121C456.171 204.142 455.47 204.237 454.611 204.41C453.753 204.585 453.127 204.741 452.741 204.874C452.086 205.108 451.635 205.504 451.394 206.063C451.152 206.624 451.032 207.224 451.032 207.861V235.48C451.032 236.754 451.093 237.748 451.221 238.451C451.346 239.155 451.639 239.701 452.103 240.087C452.548 240.438 453.209 240.664 454.089 240.77C454.968 240.875 456.201 240.928 457.786 240.928C458.499 240.928 459.243 240.909 460.017 240.871C460.79 240.833 461.524 240.755 462.218 240.637C462.894 240.523 463.518 240.363 464.088 240.162C464.657 239.958 465.078 239.701 465.348 239.393C466.141 238.505 467.064 237.156 468.116 235.35C469.17 233.545 469.898 232.08 470.305 230.958H472.362Z" fill="black"></path>
    <path fill-rule="evenodd" clip-rule="evenodd" d="M504.315 230.958C504.315 228.525 503.499 226.525 501.869 224.96C500.235 223.394 497.902 222.614 494.868 222.614C493.633 222.614 492.589 222.627 491.737 222.656C490.888 222.684 490.249 222.709 489.827 222.728V237.219C489.827 238.436 490.318 239.353 491.303 239.973C492.288 240.592 493.66 240.9 495.42 240.9C498.298 240.9 500.501 240.059 502.027 238.379C503.553 236.697 504.315 234.224 504.315 230.958ZM500.292 217.826C501.005 216.994 501.502 216.085 501.781 215.096C502.061 214.108 502.2 212.938 502.2 211.584C502.2 209.318 501.584 207.543 500.351 206.257C499.116 204.967 497.17 204.324 494.509 204.324C493.892 204.324 493.116 204.34 492.182 204.37C491.248 204.397 490.462 204.421 489.827 204.441V220.265H493.496C495.077 220.265 496.432 220.061 497.56 219.656C498.688 219.249 499.597 218.64 500.292 217.826ZM507.302 224.033C508.499 224.844 509.494 225.907 510.285 227.222C511.076 228.536 511.474 230.13 511.474 232.002C511.474 233.916 511.059 235.577 510.228 236.987C509.399 238.398 508.316 239.557 506.983 240.464C505.687 241.354 504.224 242.032 502.592 242.494C500.96 242.956 499.272 243.19 497.533 243.19H478.059V241.132C478.523 241.094 479.2 241.012 480.087 240.886C480.975 240.761 481.614 240.611 482 240.438C482.6 240.165 483.024 239.804 483.275 239.349C483.526 238.895 483.652 238.312 483.652 237.595V208.034C483.652 207.38 483.541 206.799 483.321 206.295C483.096 205.793 482.657 205.388 482 205.08C481.422 204.791 480.773 204.566 480.06 204.41C479.345 204.258 478.743 204.161 478.26 204.121V202.064H497.244C498.713 202.064 500.119 202.209 501.462 202.498C502.805 202.789 504.085 203.301 505.301 204.035C506.44 204.713 507.378 205.629 508.113 206.788C508.849 207.948 509.214 209.358 509.214 211.021C509.214 212.47 508.951 213.758 508.432 214.888C507.909 216.018 507.177 216.991 506.229 217.801C505.341 218.575 504.321 219.226 503.17 219.759C502.023 220.289 500.781 220.7 499.447 220.989V221.25C500.625 221.385 501.945 221.68 503.402 222.135C504.861 222.587 506.161 223.221 507.302 224.033Z" fill="black"></path>
    <path fill-rule="evenodd" clip-rule="evenodd" d="M548.811 236.091C549.896 234.333 550.681 232.341 551.174 230.119C551.667 227.897 551.912 225.414 551.912 222.669C551.912 219.85 551.638 217.261 551.088 214.904C550.537 212.547 549.73 210.538 548.667 208.875C547.605 207.235 546.271 205.953 544.668 205.034C543.064 204.117 541.228 203.659 539.16 203.659C536.841 203.659 534.872 204.191 533.25 205.253C531.625 206.314 530.303 207.735 529.277 209.512C528.311 211.213 527.592 213.203 527.118 215.484C526.646 217.763 526.409 220.16 526.409 222.669C526.409 225.452 526.66 227.964 527.162 230.205C527.664 232.449 528.456 234.437 529.538 236.176C530.581 237.877 531.897 239.203 533.48 240.162C535.064 241.117 536.957 241.596 539.16 241.596C541.228 241.596 543.093 241.113 544.755 240.146C546.418 239.182 547.769 237.829 548.811 236.091ZM553.131 206.933C554.946 208.829 556.366 211.112 557.389 213.789C558.414 216.464 558.928 219.426 558.928 222.669C558.928 225.936 558.403 228.9 557.36 231.569C556.32 234.234 554.87 236.505 553.014 238.379C551.218 240.232 549.129 241.663 546.755 242.667C544.377 243.674 541.847 244.176 539.16 244.176C536.301 244.176 533.659 243.639 531.235 242.566C528.809 241.493 526.728 240.002 524.989 238.088C523.251 236.216 521.883 233.939 520.888 231.264C519.891 228.588 519.395 225.723 519.395 222.669C519.395 219.329 519.918 216.35 520.962 213.73C522.005 211.112 523.443 208.847 525.279 206.933C527.093 205.04 529.207 203.592 531.61 202.586C534.016 201.583 536.533 201.077 539.16 201.077C541.885 201.077 544.455 201.591 546.871 202.616C549.285 203.64 551.372 205.08 553.131 206.933Z" fill="black"></path>
    <path fill-rule="evenodd" clip-rule="evenodd" d="M608.642 204.121C608.098 204.142 607.306 204.258 606.264 204.471C605.221 204.682 604.369 205.002 603.715 205.426C603.056 205.871 602.604 206.788 602.351 208.179C602.101 209.571 601.976 211.272 601.976 213.279V231.163C601.976 233.442 601.502 235.421 600.557 237.104C599.609 238.784 598.361 240.165 596.817 241.248C595.291 242.29 593.681 243.04 591.992 243.495C590.301 243.949 588.68 244.176 587.135 244.176C584.662 244.176 582.461 243.852 580.528 243.205C578.597 242.557 576.973 241.682 575.66 240.582C574.365 239.479 573.389 238.219 572.734 236.8C572.076 235.381 571.747 233.897 571.747 232.35V208.034C571.747 207.359 571.635 206.792 571.414 206.339C571.191 205.886 570.742 205.466 570.065 205.08C569.582 204.808 568.966 204.591 568.212 204.425C567.457 204.262 566.839 204.161 566.357 204.121V202.064H583.485V204.121C582.944 204.142 582.261 204.229 581.441 204.383C580.62 204.538 580.017 204.682 579.63 204.817C578.972 205.049 578.533 205.435 578.31 205.976C578.088 206.518 577.977 207.104 577.977 207.741V230.446C577.977 231.546 578.099 232.701 578.341 233.905C578.582 235.113 579.062 236.239 579.775 237.28C580.528 238.341 581.552 239.21 582.847 239.888C584.141 240.563 585.92 240.9 588.18 240.9C590.305 240.9 592.087 240.563 593.525 239.888C594.966 239.21 596.101 238.322 596.933 237.222C597.724 236.18 598.283 235.09 598.612 233.95C598.942 232.811 599.107 231.662 599.107 230.503V213.65C599.107 211.508 598.951 209.754 598.643 208.394C598.335 207.033 597.878 206.139 597.279 205.715C596.602 205.232 595.681 204.857 594.513 204.585C593.345 204.317 592.449 204.161 591.832 204.121V202.064H608.642V204.121Z" fill="black"></path>
    <path fill-rule="evenodd" clip-rule="evenodd" d="M639.725 212.543C639.725 210.054 639.008 208.082 637.581 206.624C636.15 205.169 634.13 204.441 631.522 204.441H626.595V222.062H630.392C633.061 222.062 635.281 221.208 637.058 219.502C638.837 217.793 639.725 215.476 639.725 212.543ZM654.969 243.19H643.895C641.443 239.346 639.229 236.022 637.252 233.22C635.272 230.42 633.124 227.53 630.809 224.553H626.595V237.595C626.595 238.273 626.703 238.866 626.914 239.378C627.126 239.892 627.582 240.282 628.278 240.552C628.625 240.689 629.233 240.812 630.103 240.928C630.972 241.044 631.708 241.113 632.306 241.132V243.19H614.916V241.132C615.382 241.094 616.05 241.025 616.931 240.928C617.81 240.833 618.424 240.708 618.77 240.552C619.35 240.302 619.771 239.933 620.032 239.45C620.294 238.969 620.423 238.349 620.423 237.595V207.861C620.423 207.184 620.326 206.585 620.134 206.063C619.94 205.542 619.486 205.146 618.77 204.874C618.287 204.701 617.659 204.543 616.887 204.397C616.113 204.252 615.458 204.161 614.916 204.121V202.064H633.9C635.639 202.064 637.269 202.245 638.797 202.601C640.324 202.959 641.705 203.533 642.942 204.324C644.14 205.099 645.095 206.109 645.813 207.353C646.526 208.599 646.882 210.102 646.882 211.86C646.882 213.445 646.64 214.845 646.157 216.062C645.674 217.28 644.96 218.334 644.013 219.22C643.144 220.053 642.099 220.773 640.886 221.379C639.666 221.99 638.323 222.506 636.856 222.932C638.884 225.618 640.57 227.878 641.913 229.714C643.256 231.55 644.901 233.781 646.855 236.408C647.704 237.567 648.472 238.423 649.157 238.973C649.844 239.522 650.525 239.973 651.202 240.32C651.704 240.571 652.332 240.765 653.086 240.9C653.837 241.035 654.465 241.113 654.969 241.132V243.19Z" fill="black"></path>
    <path fill-rule="evenodd" clip-rule="evenodd" d="M701.722 204.121C701.18 204.142 700.352 204.296 699.23 204.585C698.109 204.874 697.308 205.177 696.825 205.485C696.129 205.968 695.661 206.895 695.419 208.268C695.176 209.638 695.056 211.377 695.056 213.484V243.595H692.533L667.61 209.946V231.163C667.61 233.538 667.76 235.366 668.059 236.64C668.36 237.915 668.816 238.824 669.438 239.363C669.88 239.789 670.797 240.184 672.191 240.552C673.58 240.921 674.499 241.113 674.944 241.132V243.19H658.075V241.132C658.596 241.094 659.475 240.905 660.714 240.567C661.95 240.228 662.723 239.924 663.031 239.654C663.708 239.113 664.172 238.286 664.422 237.175C664.675 236.064 664.8 234.167 664.8 231.481V211.221C664.8 210.334 664.644 209.446 664.336 208.557C664.028 207.669 663.611 206.982 663.09 206.499C662.392 205.86 661.452 205.316 660.263 204.861C659.074 204.406 658.113 204.161 657.381 204.121V202.064H669.128L692.244 233.416V213.859C692.244 211.462 692.092 209.624 691.782 208.338C691.472 207.052 691.028 206.198 690.448 205.774C689.906 205.407 689.021 205.049 687.796 204.701C686.569 204.355 685.637 204.161 684.998 204.121V202.064H701.722V204.121Z" fill="black"></path>
    <path fill-rule="evenodd" clip-rule="evenodd" d="M742.6 231.074L741.816 243.19H707.676V241.132C708.256 241.094 709.028 241.012 709.995 240.886C710.961 240.761 711.589 240.63 711.878 240.493C712.496 240.203 712.926 239.827 713.168 239.363C713.41 238.898 713.531 238.312 713.531 237.595V208.034C713.531 207.399 713.425 206.834 713.212 206.339C712.999 205.846 712.555 205.445 711.878 205.135C711.359 204.886 710.657 204.663 709.778 204.471C708.899 204.277 708.199 204.161 707.676 204.121V202.064H739.499V211.976H737.325C736.936 210.507 736.103 208.947 734.819 207.296C733.533 205.645 732.31 204.741 731.151 204.585C730.554 204.509 729.837 204.452 729.007 204.41C728.176 204.374 727.227 204.355 726.167 204.355H719.703V220.7H724.341C725.828 220.7 726.915 220.559 727.601 220.28C728.286 220 728.891 219.532 729.413 218.874C729.837 218.315 730.2 217.563 730.499 216.627C730.797 215.691 730.995 214.807 731.094 213.975H733.267V230.089H731.094C731.016 229.162 730.809 228.182 730.472 227.147C730.133 226.114 729.78 225.367 729.413 224.903C728.813 224.147 728.132 223.657 727.369 223.423C726.606 223.192 725.596 223.076 724.341 223.076H719.703V235.402C719.703 236.637 719.79 237.609 719.963 238.324C720.138 239.037 720.477 239.58 720.977 239.945C721.481 240.31 722.166 240.548 723.036 240.652C723.905 240.761 725.144 240.812 726.747 240.812C727.385 240.812 728.223 240.812 729.268 240.812C730.312 240.812 731.189 240.776 731.905 240.698C732.639 240.62 733.398 240.479 734.18 240.278C734.964 240.072 735.517 239.798 735.848 239.45C736.737 238.524 737.669 237.12 738.641 235.234C739.619 233.351 740.241 231.964 740.513 231.074H742.6Z" fill="black"></path>
    <path d="M165.03 127.297V126.581C165.03 126.581 134.802 111.918 83.2713 111.918C31.7406 111.918 1.43177 126.581 1.43177 126.581V127.297H0.427246V222.969C0.427246 306.425 83.0635 336.965 83.3175 337.046L83.5369 336.977L83.7563 336.873H84.0103L84.4028 336.78C84.6453 336.699 166.023 306.402 166.023 222.946V127.274L165.03 127.297Z" fill="#414042"></path>
    <path d="M83.1328 111.918C31.6482 111.918 1.38558 126.57 1.38558 126.57V127.286H0.427246V222.958C0.427246 303.781 77.9947 334.956 83.1674 336.93L83.1328 111.918Z" fill="#6D6E71"></path>
    <path d="M165.977 143.312L166.15 126.616C161.985 124.798 157.726 123.202 153.391 121.836L82.9596 183.227L82.3938 308.596C93.4551 308.792 96.7342 308.492 96.7342 308.492L96.0414 203.987L165.977 143.312Z" fill="white"></path>
    <path d="M0.138555 143.416L0 126.616C4.16551 124.798 8.42433 123.203 12.7586 121.836L83.0404 183.1L83.5369 308.954C76.1819 308.503 69.5428 308.596 69.5428 308.596L70.1086 204.172L0.138555 143.416Z" fill="white"></path>
    <path d="M141.256 235.589L142.353 238.88L145.817 238.891L143.011 240.946L144.074 244.249L141.256 242.228L138.439 244.249L139.501 240.946L136.696 238.891L140.171 238.88L141.256 235.589Z" fill="white"></path>
    <path d="M132.412 256.568L134.19 259.732L137.677 258.762L136.707 262.249L139.859 264.027L136.707 265.805L137.677 269.304L134.19 268.322L132.412 271.486L130.634 268.322L127.135 269.304L128.117 265.805L124.965 264.027L128.117 262.249L127.135 258.762L130.634 259.732L132.412 256.568Z" fill="white"></path>
    <path d="M152.549 221.733L154.246 224.77L157.721 224.712L155.943 227.703L157.721 230.693L154.246 230.636L152.549 233.684L150.851 230.636L147.376 230.693L149.166 227.703L147.376 224.712L150.851 224.77L152.549 221.733Z" fill="white"></path>
    <path d="M110.543 226.664L112.252 230.093L116.005 229.296L114.4 232.772L117.356 235.22L113.638 236.132L113.569 239.954L110.543 237.621L107.507 239.954L107.437 236.132L103.72 235.22L106.675 232.772L105.071 229.296L108.823 230.093L110.543 226.664Z" fill="white"></path>
    <path d="M132.285 203.213L134.005 206.631L137.758 205.846L136.153 209.321L139.109 211.758L135.391 212.67L135.322 216.503L132.285 214.171L129.248 216.503L129.191 212.67L125.473 211.758L128.417 209.321L126.812 205.846L130.565 206.631L132.285 203.213Z" fill="white"></path>
    <path d="M98.3391 141.706C98.339 144.706 97.4501 147.638 95.7846 150.132C94.119 152.626 91.7515 154.571 88.9813 155.72C86.211 156.869 83.1623 157.172 80.2202 156.589C77.2781 156.006 74.5747 154.565 72.4515 152.447C70.3284 150.328 68.8807 147.628 68.2914 144.687C67.7021 141.747 67.9976 138.697 69.1406 135.924C70.2836 133.152 72.2228 130.78 74.7132 129.108C77.2036 127.437 80.1335 126.542 83.1327 126.535C87.1565 126.535 91.0155 128.133 93.8607 130.978C96.706 133.824 98.3044 137.683 98.3044 141.706" fill="white"></path>
    <path d="M138.185 156.163C137.631 156.65 136.946 156.962 136.215 157.059C135.484 157.157 134.74 157.036 134.078 156.711C133.416 156.386 132.865 155.871 132.495 155.233C132.125 154.595 131.953 153.862 132 153.126C132.046 152.39 132.31 151.684 132.758 151.098C133.206 150.512 133.817 150.072 134.515 149.834C135.213 149.595 135.966 149.569 136.679 149.758C137.392 149.948 138.032 150.344 138.52 150.898C138.844 151.265 139.092 151.693 139.25 152.157C139.409 152.62 139.474 153.11 139.443 153.599C139.412 154.088 139.285 154.566 139.069 155.006C138.853 155.446 138.553 155.839 138.185 156.163" fill="#231F20"></path>
    <path d="M131.465 162.074C130.912 162.561 130.226 162.873 129.495 162.971C128.764 163.068 128.02 162.947 127.358 162.622C126.696 162.297 126.145 161.783 125.775 161.145C125.405 160.507 125.233 159.773 125.28 159.037C125.327 158.301 125.591 157.596 126.038 157.01C126.486 156.424 127.098 155.984 127.796 155.745C128.493 155.507 129.246 155.48 129.959 155.67C130.672 155.859 131.313 156.255 131.8 156.809C132.124 157.177 132.372 157.604 132.531 158.068C132.689 158.532 132.755 159.022 132.724 159.511C132.692 160 132.565 160.478 132.349 160.918C132.134 161.357 131.833 161.75 131.465 162.074" fill="#231F20"></path>
    <path d="M138.185 156.163C137.631 156.65 136.946 156.962 136.215 157.059C135.484 157.157 134.74 157.036 134.078 156.711C133.416 156.386 132.865 155.871 132.495 155.233C132.125 154.595 131.953 153.862 132 153.126C132.046 152.39 132.31 151.684 132.758 151.098C133.206 150.512 133.817 150.072 134.515 149.834C135.213 149.595 135.966 149.569 136.679 149.758C137.392 149.948 138.032 150.344 138.52 150.898C138.844 151.265 139.092 151.693 139.25 152.157C139.409 152.62 139.474 153.11 139.443 153.599C139.412 154.088 139.285 154.566 139.069 155.006C138.853 155.446 138.553 155.839 138.185 156.163" fill="#231F20"></path>
    <path d="M131.465 162.074C130.912 162.561 130.226 162.873 129.495 162.971C128.764 163.068 128.02 162.947 127.358 162.622C126.696 162.297 126.145 161.783 125.775 161.145C125.405 160.507 125.233 159.773 125.28 159.037C125.327 158.301 125.591 157.596 126.038 157.01C126.486 156.424 127.098 155.984 127.796 155.745C128.493 155.507 129.246 155.48 129.959 155.67C130.672 155.859 131.313 156.255 131.8 156.809C132.124 157.177 132.372 157.604 132.531 158.068C132.689 158.532 132.755 159.022 132.724 159.511C132.692 160 132.565 160.478 132.349 160.918C132.134 161.357 131.833 161.75 131.465 162.074" fill="#231F20"></path>
    <path d="M132.204 150.494C132.691 151.047 133.003 151.733 133.101 152.464C133.198 153.195 133.077 153.939 132.752 154.601C132.427 155.263 131.913 155.813 131.275 156.183C130.637 156.553 129.904 156.726 129.168 156.679C128.431 156.632 127.726 156.368 127.14 155.92C126.554 155.473 126.114 154.861 125.875 154.163C125.637 153.465 125.61 152.712 125.8 152C125.989 151.287 126.386 150.646 126.939 150.159C127.683 149.508 128.654 149.177 129.641 149.24C130.627 149.303 131.549 149.753 132.204 150.494" fill="#231F20"></path>
    <path d="M138.116 157.213C138.603 157.767 138.915 158.452 139.013 159.184C139.11 159.915 138.989 160.658 138.664 161.32C138.339 161.982 137.825 162.533 137.187 162.903C136.549 163.273 135.815 163.445 135.079 163.399C134.343 163.352 133.638 163.088 133.052 162.64C132.466 162.192 132.025 161.581 131.787 160.883C131.548 160.185 131.522 159.432 131.712 158.719C131.901 158.006 132.297 157.366 132.851 156.878C133.218 156.554 133.646 156.306 134.11 156.148C134.573 155.989 135.064 155.924 135.553 155.955C136.042 155.986 136.52 156.113 136.959 156.329C137.399 156.545 137.792 156.845 138.116 157.213" fill="#231F20"></path>
    <path d="M132.637 152.875L129.032 156.049L132.564 160.062L136.169 156.888L132.637 152.875Z" fill="#231F20"></path>
    <path d="M50.6417 76.6551C60.1443 71.2284 73.8034 70.501 73.8034 70.501L73.8958 8.72874C81.32 1.31607 83.0635 0.346191 83.0635 0.346191C85.3727 2.13585 86.8276 3.60222 91.8155 8.85575V70.3278C99.5156 70.8096 107.084 72.5573 114.215 75.5005C111.906 80.8695 107.53 88.5015 107.53 88.5015C78.3411 80.9272 58.7472 88.5015 58.7472 88.5015C55.7095 84.7943 53.0049 80.8263 50.6648 76.6436" fill="white"></path>
    <path d="M50.6417 76.6551C60.1443 71.2284 73.8034 70.501 73.8034 70.501L73.8958 8.72874C81.32 1.31607 83.0635 0.346191 83.0635 0.346191C85.3727 2.13585 86.8276 3.60222 91.8155 8.85575V70.3278C99.5156 70.8096 107.084 72.5573 114.215 75.5005C111.906 80.8695 107.53 88.5015 107.53 88.5015C78.3411 80.9272 58.7472 88.5015 58.7472 88.5015C55.7021 84.7989 52.9897 80.8347 50.6417 76.6551V76.6551Z" stroke="#231F20" stroke-width="0.5"></path>
    <path d="M14.6522 115.254C13.7431 116.113 12.6923 116.808 11.5463 117.309C10.2416 117.921 8.08242 118.972 7.8515 120C7.11254 118.476 7.25109 117.46 7.8515 116.698C9.19853 115.671 10.6591 114.804 12.2044 114.111C12.7236 113.823 13.1981 113.462 13.6131 113.037L14.6522 115.254Z" fill="#939598"></path>
    <path d="M14.6522 115.254C13.7431 116.113 12.6923 116.808 11.5463 117.309C10.2416 117.921 8.08242 118.972 7.8515 120C7.11254 118.476 7.25109 117.46 7.8515 116.698C9.19853 115.671 10.6591 114.804 12.2044 114.111C12.7236 113.823 13.1981 113.462 13.6131 113.037L14.6522 115.254Z" stroke="#231F20" stroke-width="0.5" stroke-linecap="square" stroke-linejoin="round"></path>
    <path d="M13.5206 113.5C12.6052 114.364 11.5464 115.064 10.3916 115.566C9.0869 116.178 6.92776 117.229 6.69683 118.257C5.95788 116.732 6.09643 115.716 6.69683 114.954C8.04467 113.929 9.50509 113.062 11.0498 112.368C11.5689 112.08 12.0434 111.719 12.4584 111.294L13.5206 113.5Z" fill="#939598"></path>
    <path d="M13.5206 113.5C12.6052 114.364 11.5464 115.064 10.3916 115.566C9.0869 116.178 6.92776 117.229 6.69683 118.257C5.95788 116.732 6.09643 115.716 6.69683 114.954C8.04467 113.929 9.50509 113.062 11.0498 112.368C11.5689 112.08 12.0434 111.719 12.4584 111.294L13.5206 113.5Z" stroke="#231F20" stroke-width="0.5" stroke-linecap="square" stroke-linejoin="round"></path>
    <path d="M12.4583 111.675C11.5347 112.537 10.4681 113.233 9.30617 113.73C8.00145 114.342 5.84231 115.393 5.61138 116.42C4.87243 114.896 5.01098 113.88 5.61138 113.118C6.95842 112.092 8.41899 111.224 9.96431 110.532C10.4834 110.244 10.9579 109.882 11.3729 109.458L12.4583 111.675Z" fill="#939598"></path>
    <path d="M12.4583 111.675C11.5347 112.537 10.4681 113.233 9.30617 113.73C8.00145 114.342 5.84231 115.393 5.61138 116.42C4.87243 114.896 5.01098 113.88 5.61138 113.118C6.95842 112.092 8.41899 111.224 9.96431 110.532C10.4834 110.244 10.9579 109.882 11.3729 109.458L12.4583 111.675Z" stroke="#231F20" stroke-width="0.5" stroke-linecap="square" stroke-linejoin="round"></path>
    <path d="M8.08244 103.685C6.86711 104.034 5.72218 104.592 4.6994 105.336C3.54478 106.144 1.48956 107.472 0.496582 107.137C1.39719 108.534 2.30934 108.961 3.3254 108.8C4.89421 108.167 6.38564 107.358 7.7707 106.387C8.28207 106.088 8.83448 105.866 9.41026 105.728L8.08244 103.685Z" fill="#939598"></path>
    <path d="M8.08244 103.685C6.86711 104.034 5.72218 104.592 4.6994 105.336C3.54478 106.144 1.48956 107.472 0.496582 107.137C1.39719 108.534 2.30934 108.961 3.3254 108.8C4.89421 108.167 6.38564 107.358 7.7707 106.387C8.28207 106.088 8.83448 105.866 9.41026 105.728L8.08244 103.685Z" stroke="#231F20" stroke-width="0.5" stroke-linecap="square" stroke-linejoin="round"></path>
    <path d="M8.98296 105.555C7.76762 105.904 6.62269 106.463 5.59992 107.207C4.44529 108.015 2.39007 109.343 1.39709 109.008C2.30925 110.416 3.26758 110.844 4.24901 110.67C5.81764 110.038 7.30903 109.228 8.6943 108.257C9.20597 107.959 9.75829 107.738 10.3339 107.599L8.98296 105.555Z" fill="#939598"></path>
    <path d="M8.98296 105.555C7.76762 105.904 6.62269 106.463 5.59992 107.207C4.44529 108.015 2.39007 109.343 1.39709 109.008C2.30925 110.416 3.26758 110.844 4.24901 110.67C5.81764 110.038 7.30903 109.228 8.6943 108.257C9.20597 107.959 9.75829 107.738 10.3339 107.599L8.98296 105.555Z" stroke="#231F20" stroke-width="0.5" stroke-linecap="square" stroke-linejoin="round"></path>
    <path d="M10.0105 107.38C8.79538 107.729 7.65052 108.288 6.6275 109.031C5.43824 109.862 3.46384 111.19 2.42468 110.844C3.34838 112.252 4.30672 112.657 5.2766 112.506C6.84523 111.874 8.33662 111.064 9.72189 110.093C10.2336 109.795 10.7859 109.574 11.3615 109.435L10.0105 107.38Z" fill="#939598"></path>
    <path d="M10.0105 107.38C8.79538 107.729 7.65052 108.288 6.6275 109.031C5.43824 109.862 3.46384 111.19 2.42468 110.844C3.34838 112.252 4.30672 112.657 5.2766 112.506C6.84523 111.874 8.33662 111.064 9.72189 110.093C10.2336 109.795 10.7859 109.574 11.3615 109.435L10.0105 107.38Z" stroke="#231F20" stroke-width="0.5" stroke-linecap="square" stroke-linejoin="round"></path>
    <g opacity="0.979996">
      <g opacity="0.979996">
        <path opacity="0.979996" d="M62.2342 82.5206C63.7352 85.7997 70.432 94.1361 65.8828 95.6717C61.3336 97.2074 53.6091 93.5588 49.8913 92.2078C46.1734 90.8569 38.345 88.744 30.7938 92.6235C31.3365 95.1752 33.1031 104.724 33.1031 104.724C39.7281 103.123 46.6735 103.46 53.1127 105.694C57.7311 107.368 64.9591 108.592 69.2774 108.003C75.2352 107.229 79.184 104.724 80.5349 100.486C83.918 90.0602 78.5143 82.3243 77.3597 80.1882C75.8472 77.5095 62.2457 82.4975 62.2457 82.4975" fill="#BCBEC0"></path>
        <path opacity="0.979996" d="M62.2342 82.5209C63.7352 85.8001 70.432 94.1364 65.8828 95.6721C61.3336 97.2077 53.6091 93.5591 49.8913 92.2082C46.1734 90.8573 38.345 88.7443 30.7938 92.6239C31.3365 95.1756 33.1031 104.724 33.1031 104.724C39.7281 103.123 46.6735 103.46 53.1127 105.694C57.7311 107.368 64.9591 108.592 69.2774 108.003C75.2352 107.23 79.184 104.724 80.5349 100.487C83.918 90.0606 78.5143 82.3246 77.3597 80.1886C75.8356 77.5214 62.2342 82.5209 62.2342 82.5209Z" stroke="#231F20" stroke-width="0.5"></path>
      </g>
    </g>
    <g opacity="0.979996">
      <g opacity="0.979996">
        <path opacity="0.979996" d="M31.0247 93.1891C33.2646 94.2283 39.2225 92.0345 40.5041 93.4431C41.4855 94.5978 42.6401 98.3041 42.6401 98.3041L31.9945 97.8769L31.0247 93.1891Z" fill="#939598"></path>
        <path opacity="0.979996" d="M31.0247 93.1891C33.2646 94.2283 39.2225 92.0345 40.5041 93.4431C41.4855 94.5978 42.6401 98.3041 42.6401 98.3041L31.9945 97.8769L31.0247 93.1891Z" stroke="#231F20" stroke-width="0.5"></path>
      </g>
    </g>
    <path d="M6.92773 104.1C11.8196 101.583 16.9888 99.6453 22.3304 98.3274C26.5909 97.1728 38.4373 94.6903 41.0468 95.0713C44.0719 98.847 44.0719 108.927 44.0719 108.927C38.1527 109.581 32.2954 110.708 26.5563 112.298C20.2867 113.949 15.3103 115.624 13.3012 116.339C10.0337 112.298 6.92773 104.1 6.92773 104.1Z" fill="#BCBEC0"></path>
    <path d="M6.92773 104.1C11.8196 101.583 16.9888 99.6453 22.3304 98.3274C26.5909 97.1728 38.4373 94.6903 41.0468 95.0713C44.0719 98.847 44.0719 108.927 44.0719 108.927C38.1527 109.581 32.2954 110.708 26.5563 112.298C20.2867 113.949 15.3103 115.624 13.3012 116.339C10.0337 112.298 6.92773 104.1 6.92773 104.1Z" stroke="#231F20" stroke-width="0.5"></path>
    <path d="M151.775 115.254C152.698 116.118 153.765 116.813 154.927 117.309C156.232 117.921 158.391 118.972 158.622 120C159.361 118.476 159.222 117.46 158.622 116.698C157.275 115.671 155.814 114.804 154.269 114.111C153.75 113.823 153.275 113.462 152.86 113.037L151.775 115.254Z" fill="#939598"></path>
    <path d="M151.775 115.254C152.698 116.118 153.765 116.813 154.927 117.309C156.232 117.921 158.391 118.972 158.622 120C159.361 118.476 159.222 117.46 158.622 116.698C157.275 115.671 155.814 114.804 154.269 114.111C153.75 113.823 153.275 113.462 152.86 113.037L151.775 115.254Z" stroke="#231F20" stroke-width="0.5" stroke-linecap="square" stroke-linejoin="round"></path>
    <path d="M152.918 113.499C153.841 114.362 154.908 115.058 156.07 115.554C157.375 116.166 159.534 117.217 159.765 118.245C160.504 116.72 160.365 115.704 159.765 114.942C158.417 113.917 156.957 113.05 155.412 112.356C154.893 112.068 154.418 111.707 154.003 111.282L152.918 113.499Z" fill="#939598"></path>
    <path d="M152.918 113.499C153.841 114.362 154.908 115.058 156.07 115.554C157.375 116.166 159.534 117.217 159.765 118.245C160.504 116.72 160.365 115.704 159.765 114.942C158.417 113.917 156.957 113.05 155.412 112.356C154.893 112.068 154.418 111.707 154.003 111.282L152.918 113.499Z" stroke="#231F20" stroke-width="0.5" stroke-linecap="square" stroke-linejoin="round"></path>
    <path d="M153.969 111.675C154.892 112.537 155.959 113.233 157.121 113.73C158.426 114.342 160.585 115.393 160.816 116.42C161.555 114.896 161.416 113.88 160.816 113.118C159.469 112.092 158.008 111.224 156.463 110.532C155.944 110.244 155.469 109.882 155.054 109.458L153.969 111.675Z" fill="#939598"></path>
    <path d="M153.969 111.675C154.892 112.537 155.959 113.233 157.121 113.73C158.426 114.342 160.585 115.393 160.816 116.42C161.555 114.896 161.416 113.88 160.816 113.118C159.469 112.092 158.008 111.224 156.463 110.532C155.944 110.244 155.469 109.882 155.054 109.458L153.969 111.675Z" stroke="#231F20" stroke-width="0.5" stroke-linecap="square" stroke-linejoin="round"></path>
    <path d="M158.379 103.685C159.595 104.034 160.74 104.592 161.763 105.336C162.917 106.144 164.961 107.472 165.965 107.137C165.03 108.546 164.095 108.961 163.113 108.8C161.545 108.167 160.053 107.358 158.668 106.387C158.157 106.088 157.604 105.866 157.029 105.728L158.379 103.685Z" fill="#939598"></path>
    <path d="M158.379 103.685C159.595 104.034 160.74 104.592 161.763 105.336C162.917 106.144 164.961 107.472 165.965 107.137C165.03 108.546 164.095 108.961 163.113 108.8C161.545 108.167 160.053 107.358 158.668 106.387C158.157 106.088 157.604 105.866 157.029 105.728L158.379 103.685Z" stroke="#231F20" stroke-width="0.5" stroke-linecap="square" stroke-linejoin="round"></path>
    <path d="M157.456 105.555C158.671 105.904 159.816 106.463 160.839 107.207C161.993 108.015 164.037 109.343 165.042 109.008C164.118 110.416 163.171 110.82 162.19 110.67C160.621 110.038 159.13 109.228 157.744 108.257C157.233 107.959 156.68 107.738 156.105 107.599L157.456 105.555Z" fill="#939598"></path>
    <path d="M157.456 105.555C158.671 105.904 159.816 106.463 160.839 107.207C161.993 108.015 164.037 109.343 165.042 109.008C164.118 110.416 163.171 110.82 162.19 110.67C160.621 110.038 159.13 109.228 157.744 108.257C157.233 107.959 156.68 107.738 156.105 107.599L157.456 105.555Z" stroke="#231F20" stroke-width="0.5" stroke-linecap="square" stroke-linejoin="round"></path>
    <path d="M156.417 107.38C157.632 107.729 158.777 108.288 159.8 109.031C160.954 109.839 162.998 111.167 164.002 110.832C163.079 112.241 162.132 112.645 161.151 112.495C159.582 111.862 158.091 111.052 156.705 110.082C156.194 109.784 155.641 109.562 155.066 109.424L156.417 107.38Z" fill="#939598"></path>
    <path d="M156.417 107.38C157.632 107.729 158.777 108.288 159.8 109.031C160.954 109.839 162.998 111.167 164.002 110.832C163.079 112.241 162.132 112.645 161.151 112.495C159.582 111.862 158.091 111.052 156.705 110.082C156.194 109.784 155.641 109.562 155.066 109.424L156.417 107.38Z" stroke="#231F20" stroke-width="0.5" stroke-linecap="square" stroke-linejoin="round"></path>
    <g opacity="0.979996">
      <g opacity="0.979996">
        <path opacity="0.979996" d="M104.193 82.5207C102.692 85.7998 95.9952 94.1362 100.544 95.6718C105.094 97.2075 112.818 93.5589 116.536 92.208C120.254 90.857 128.082 88.7441 135.633 92.6236C135.091 95.1753 133.324 104.724 133.324 104.724C126.686 103.093 119.719 103.41 113.257 105.636C108.638 107.31 101.41 108.534 97.092 107.945C91.215 107.253 87.1969 104.747 85.8576 100.452C82.5207 89.9795 87.8782 82.2667 89.0905 80.1306C90.6146 77.4519 104.205 82.4399 104.205 82.4399" fill="#BCBEC0"></path>
        <path opacity="0.979996" d="M104.193 82.5202C102.692 85.7994 95.9952 94.1357 100.544 95.6714C105.094 97.207 112.818 93.5584 116.536 92.2075C120.254 90.8566 128.082 88.7436 135.633 92.6232C135.091 95.1749 133.324 104.724 133.324 104.724C126.686 103.093 119.719 103.41 113.257 105.636C108.638 107.31 101.41 108.534 97.092 107.945C91.215 107.252 87.1969 104.747 85.8576 100.451C82.5207 89.9791 87.8782 82.2662 89.0905 80.1302C90.6031 77.5207 104.193 82.5202 104.193 82.5202Z" stroke="#231F20" stroke-width="0.5"></path>
      </g>
    </g>
    <g opacity="0.979996">
      <g opacity="0.979996">
        <path opacity="0.979996" d="M135.414 93.1891C133.162 94.2283 127.216 92.0345 125.934 93.4431C124.953 94.5978 123.787 98.3041 123.787 98.3041L134.432 97.8769L135.414 93.1891Z" fill="#939598"></path>
        <path opacity="0.979996" d="M135.414 93.1891C133.162 94.2283 127.216 92.0345 125.934 93.4431C124.953 94.5978 123.787 98.3041 123.787 98.3041L134.432 97.8769L135.414 93.1891Z" stroke="#231F20" stroke-width="0.5"></path>
      </g>
    </g>
    <path d="M159.511 104.1C154.619 101.583 149.45 99.6453 144.108 98.3274C139.848 97.1728 128.001 94.6903 125.392 95.0713C122.367 98.847 122.367 108.927 122.367 108.927C128.274 109.579 134.12 110.702 139.848 112.287C146.117 113.938 151.094 115.612 153.091 116.328C156.405 112.287 159.511 104.089 159.511 104.089" fill="#BCBEC0"></path>
    <path d="M159.511 104.1C154.619 101.583 149.45 99.6453 144.108 98.3274C139.848 97.1728 128.001 94.6903 125.392 95.0713C122.367 98.847 122.367 108.927 122.367 108.927C128.274 109.579 134.12 110.702 139.848 112.287C146.117 113.938 151.094 115.612 153.091 116.328C156.405 112.298 159.511 104.1 159.511 104.1Z" stroke="#231F20" stroke-width="0.5"></path>
    <path d="M141.256 235.589L142.353 238.88L145.817 238.891L143.011 240.946L144.074 244.249L141.256 242.228L138.439 244.249L139.501 240.946L136.696 238.891L140.171 238.88L141.256 235.589Z" fill="white"></path>
    <path d="M132.412 256.568L134.19 259.732L137.677 258.762L136.707 262.249L139.859 264.027L136.707 265.805L137.677 269.304L134.19 268.322L132.412 271.486L130.634 268.322L127.135 269.304L128.117 265.805L124.965 264.027L128.117 262.249L127.135 258.762L130.634 259.732L132.412 256.568Z" fill="white"></path>
    <path d="M152.549 221.733L154.246 224.77L157.721 224.712L155.943 227.703L157.721 230.693L154.246 230.636L152.549 233.684L150.851 230.636L147.376 230.693L149.166 227.703L147.376 224.712L150.851 224.77L152.549 221.733Z" fill="white"></path>
    <path d="M110.543 226.664L112.252 230.093L116.005 229.296L114.4 232.772L117.356 235.22L113.638 236.132L113.569 239.954L110.543 237.621L107.507 239.954L107.437 236.132L103.72 235.22L106.675 232.772L105.071 229.296L108.823 230.093L110.543 226.664Z" fill="white"></path>
    <path d="M132.285 203.213L134.005 206.631L137.758 205.846L136.153 209.321L139.109 211.758L135.391 212.67L135.322 216.503L132.285 214.171L129.248 216.503L129.191 212.67L125.473 211.758L128.417 209.321L126.812 205.846L130.565 206.631L132.285 203.213Z" fill="white"></path>
    <path d="M16.2917 259.801L20.9449 219.274L27.0759 272.64L36.2782 193.145L45.3305 272.456L51.6001 219.447L56.2301 260.69L50.9073 260.355L49.2562 246.304L45.6307 276.786H37.9178L32.8721 230.497L27.5262 276.786H21.9956L18.601 246.754L17.0423 259.836L16.2917 259.801Z" fill="#D1D3D4"></path>
    <path d="M36.7746 187.049H35.7932V199.264H36.7746V187.049Z" fill="#D1D3D4"></path>
    <path d="M38.3681 188.861H34.1884V189.831H38.3681V188.861Z" fill="#D1D3D4"></path>
    <path d="M14.2942 121.604L83.1327 181.356L151.844 121.547C151.844 121.547 152.064 121.547 151.74 121.547C77.3134 100.371 14.3404 121.662 14.3404 121.662" fill="#939598"></path>
    <path d="M83.1096 115.936L85.338 124.595L89.7256 116.813L89.6332 125.75L95.8797 119.353L93.4781 127.967L101.168 123.418L96.6187 131.108L105.221 128.706L98.8355 134.964L107.772 134.86L99.9902 139.248L108.638 141.476L99.9902 143.693L107.772 148.08L98.8355 147.988L105.221 154.235L96.6187 151.833L101.168 159.523L93.4781 154.974L95.8797 163.587L89.6332 157.202L89.7256 166.139L85.338 158.345L83.1096 167.005L80.8927 158.345L76.5052 166.139L76.5975 157.202L70.3395 163.587L72.7527 154.974L65.0513 159.523L69.6121 151.833L60.9986 154.235L67.3837 147.988L58.4469 148.08L66.2406 143.693L57.5809 141.476L66.2406 139.248L58.4469 134.86L67.3837 134.964L60.9986 128.706L69.6121 131.108L65.0513 123.418L72.7527 127.967L70.3395 119.353L76.5975 125.75L76.5052 116.813L80.8927 124.595L83.1096 115.936Z" fill="#D1D3D4"></path>
    <path d="M98.3391 141.706C98.339 144.706 97.4501 147.638 95.7846 150.132C94.119 152.626 91.7515 154.571 88.9813 155.72C86.211 156.869 83.1623 157.172 80.2202 156.589C77.2781 156.006 74.5747 154.565 72.4515 152.447C70.3284 150.328 68.8807 147.628 68.2914 144.687C67.7021 141.747 67.9976 138.697 69.1406 135.924C70.2836 133.152 72.2228 130.78 74.7132 129.108C77.2036 127.437 80.1335 126.542 83.1327 126.535C87.1565 126.535 91.0155 128.133 93.8607 130.978C96.706 133.824 98.3044 137.683 98.3044 141.706" fill="white"></path>
    <path d="M82.2436 136.245C82.2436 132.539 82.2436 131.869 82.2436 131.107C82.2436 130.345 82.0243 129.952 81.3084 129.756C81.065 129.708 80.8175 129.685 80.5694 129.687C80.4771 129.687 80.3962 129.687 80.3962 129.548C80.3962 129.41 80.5002 129.352 80.7426 129.352C81.7241 129.352 83.0519 129.421 83.1904 129.421C83.6638 129.421 84.9224 129.352 85.9153 129.352C88.6287 129.352 89.5986 130.357 89.945 130.715C90.6356 131.496 91.021 132.5 91.0303 133.543C91.0832 134.273 90.9839 135.005 90.7389 135.694C90.4938 136.382 90.1083 137.013 89.6067 137.545C89.1052 138.077 88.4985 138.499 87.8253 138.784C87.1521 139.069 86.427 139.211 85.696 139.201C85.5461 139.213 85.3955 139.213 85.2457 139.201C85.1302 139.201 85.0032 139.201 85.0032 139.039C85.0032 138.878 85.1302 138.831 85.592 138.831C86.0942 138.83 86.5911 138.728 87.0533 138.532C87.5156 138.336 87.9339 138.049 88.2835 137.688C88.6332 137.328 88.9073 136.901 89.0895 136.433C89.2717 135.965 89.3584 135.466 89.3446 134.964C89.4098 133.635 88.9776 132.33 88.1322 131.303C87.7613 130.894 87.3001 130.576 86.785 130.375C86.2699 130.175 85.7152 130.097 85.1648 130.149C84.8471 130.134 84.5295 130.181 84.2296 130.287C84.1026 130.287 84.0564 130.507 84.0564 130.738V140.506C84.0564 142.815 84.0564 151.509 84.1719 152.514C84.2296 153.207 84.3681 153.726 85.0147 153.818C85.3361 153.867 85.6599 153.898 85.9846 153.911C86.1232 153.911 86.1578 153.98 86.1578 154.061C86.1578 154.142 86.0539 154.246 85.8114 154.246C84.6568 154.246 83.2482 154.176 83.1442 154.176C83.0403 154.176 81.7125 154.246 81.0659 154.246C80.8235 154.246 80.7195 154.246 80.7195 154.061C80.7195 153.876 80.7195 153.911 80.8927 153.911C81.1147 153.903 81.3353 153.872 81.5509 153.818C81.9781 153.726 82.0935 153.195 82.1744 152.514C82.2898 151.521 82.2898 142.792 82.2898 140.506L82.2436 136.245Z" fill="#58595B"></path>
    <path d="M82.1744 145.575L78.3526 141.684C77.874 141.108 77.2218 140.703 76.4936 140.529C76.1618 140.47 75.8261 140.435 75.4891 140.425C75.3506 140.425 75.2813 140.425 75.2813 140.333C75.2813 140.241 75.3737 140.229 75.6854 140.229H78.4796C78.699 140.229 79.9113 140.229 80.7196 140.229C81.0544 140.229 81.1237 140.229 81.1237 140.333C81.1237 140.437 81.0544 140.425 80.9043 140.425C80.6893 140.404 80.4727 140.404 80.2577 140.425C80.0383 140.425 79.9691 140.575 79.9691 140.668C79.9933 140.849 80.0789 141.016 80.2115 141.141C81.2045 142.296 82.1859 143.346 83.4214 144.605C84.1372 143.982 86.689 141.511 86.8852 141.21C87.0251 141.071 87.1111 140.887 87.1277 140.691C87.1277 140.587 86.9545 140.471 86.7236 140.425C86.4854 140.406 86.2459 140.406 86.0077 140.425C85.8692 140.425 85.7884 140.425 85.7884 140.333C85.7884 140.241 85.9038 140.229 86.1925 140.229C87.0931 140.229 88.0976 140.229 88.317 140.229C88.5363 140.229 89.4716 140.229 90.3145 140.229C90.58 140.229 90.6955 140.229 90.6955 140.333C90.6955 140.437 90.6031 140.425 90.4415 140.425C90.1778 140.428 89.9149 140.455 89.6563 140.506C88.9465 140.707 88.3094 141.108 87.8205 141.661L83.9871 145.125C84.4374 145.575 88.5133 149.743 89.0213 150.17C89.4221 150.512 89.9097 150.736 90.4299 150.817C90.7047 150.864 90.9826 150.891 91.2613 150.898C91.3767 150.898 91.4575 150.898 91.4575 150.99C91.4575 151.082 91.3421 151.106 91.1227 151.106C89.6679 151.106 88.5248 151.106 87.3009 151.106C86.689 151.106 86.5619 151.106 86.5619 150.99C86.5619 150.875 86.5619 150.886 86.7005 150.875C86.839 150.863 87.0353 150.701 86.816 150.471C85.5343 149.05 84.1488 147.619 82.7171 146.164L78.9992 149.997C78.8258 150.167 78.7157 150.391 78.6874 150.632C78.6874 150.771 78.8491 150.875 79.0685 150.909H79.5188C79.6342 150.909 79.715 150.909 79.715 151.013C79.715 151.117 79.5996 151.117 79.4264 151.117H77.1171C76.9093 151.117 75.7316 151.117 74.9465 151.117C74.7502 151.117 74.704 151.117 74.704 151.013C74.704 150.909 74.7733 150.909 74.8887 150.909C75.1941 150.911 75.4992 150.887 75.8009 150.84C76.5708 150.69 77.2669 150.283 77.7753 149.685L82.1744 145.575Z" fill="#58595B"></path>
    <path d="M87.5549 8.89056C91.8039 2.94426 95.4179 2.08984 95.4179 2.08984C103.061 10.1722 116.201 39.2802 119.007 54.5789C91.3767 59.1974 88.6172 57.3385 88.6172 57.3385L87.5549 8.89056Z" fill="#939598"></path>
    <path d="M87.5549 8.89056C91.8039 2.94426 95.4179 2.08984 95.4179 2.08984C103.061 10.1722 116.201 39.2802 119.007 54.5789C91.3767 59.1974 88.6172 57.3385 88.6172 57.3385L87.5549 8.89056Z" stroke="#231F20" stroke-width="0.5"></path>
    <path d="M44.6377 54.7869C52.7085 32.4796 64.197 15.8761 83.1328 0.381104C100.348 14.837 115.658 40.7928 120.081 55.6413C119.134 65.0861 115.347 74.7156 107.553 88.3517C96.2839 85.1649 74.6579 83.0751 58.7125 88.3517C44.4645 72.6604 44.5684 54.9831 44.6377 54.7869Z" fill="#BCBEC0"></path>
    <path d="M44.6377 54.7869C52.7085 32.4796 64.197 15.8761 83.1328 0.381104C100.348 14.837 115.658 40.7928 120.081 55.6413C119.134 65.0861 115.347 74.7156 107.553 88.3517C96.2839 85.1649 74.6579 83.0751 58.7125 88.3517C44.4645 72.6604 44.5684 54.9831 44.6377 54.7869Z" stroke="#231F20" stroke-width="0.5"></path>
    <path d="M50.6417 76.6551C60.1443 71.2284 73.8034 70.501 73.8034 70.501L73.8958 8.72874C81.32 1.31607 83.0635 0.346191 83.0635 0.346191C85.3727 2.13585 86.8276 3.60222 91.8155 8.85575V70.3278C99.5156 70.8096 107.084 72.5573 114.215 75.5005C111.906 80.8695 107.53 88.5015 107.53 88.5015C78.3411 80.9272 58.7472 88.5015 58.7472 88.5015C55.7095 84.7943 53.0049 80.8263 50.6648 76.6436" fill="white"></path>
    <path d="M50.6417 76.6551C60.1443 71.2284 73.8034 70.501 73.8034 70.501L73.8958 8.72874C81.32 1.31607 83.0635 0.346191 83.0635 0.346191C85.3727 2.13585 86.8276 3.60222 91.8155 8.85575V70.3278C99.5156 70.8096 107.084 72.5573 114.215 75.5005C111.906 80.8695 107.53 88.5015 107.53 88.5015C78.3411 80.9272 58.7472 88.5015 58.7472 88.5015C55.7021 84.7989 52.9897 80.8347 50.6417 76.6551V76.6551Z" stroke="#231F20" stroke-width="0.5"></path>
    <path d="M27.5261 155.967C28.0798 156.454 28.7655 156.766 29.4965 156.863C30.2276 156.961 30.9711 156.839 31.6332 156.514C32.2952 156.189 32.846 155.675 33.216 155.037C33.5859 154.399 33.7584 153.666 33.7116 152.93C33.6648 152.194 33.4008 151.488 32.953 150.902C32.5052 150.316 31.8937 149.876 31.1958 149.638C30.4979 149.399 29.745 149.373 29.0322 149.562C28.3194 149.752 27.6787 150.148 27.1912 150.701C26.8674 151.069 26.6191 151.497 26.4607 151.961C26.3022 152.424 26.2367 152.914 26.2678 153.403C26.2989 153.892 26.426 154.37 26.6419 154.81C26.8578 155.25 27.1582 155.643 27.5261 155.967" fill="#231F20"></path>
    <path d="M34.246 161.878C34.7997 162.365 35.4854 162.677 36.2165 162.774C36.9475 162.872 37.6911 162.751 38.3531 162.426C39.0152 162.101 39.566 161.587 39.9359 160.949C40.3059 160.311 40.4784 159.577 40.4316 158.841C40.3848 158.105 40.1208 157.399 39.673 156.813C39.2252 156.227 38.6137 155.787 37.9158 155.549C37.2179 155.31 36.465 155.284 35.7522 155.473C35.0394 155.663 34.3987 156.059 33.9112 156.613C33.5873 156.98 33.3391 157.408 33.1806 157.872C33.0222 158.335 32.9566 158.826 32.9877 159.315C33.0188 159.803 33.146 160.281 33.3619 160.721C33.5778 161.161 33.8782 161.554 34.246 161.878" fill="#231F20"></path>
    <path d="M27.5261 155.967C28.0798 156.454 28.7655 156.766 29.4965 156.863C30.2276 156.961 30.9711 156.839 31.6332 156.514C32.2952 156.189 32.846 155.675 33.216 155.037C33.5859 154.399 33.7584 153.666 33.7116 152.93C33.6648 152.194 33.4008 151.488 32.953 150.902C32.5052 150.316 31.8937 149.876 31.1958 149.638C30.4979 149.399 29.745 149.373 29.0322 149.562C28.3194 149.752 27.6787 150.148 27.1912 150.701C26.8674 151.069 26.6191 151.497 26.4607 151.961C26.3022 152.424 26.2367 152.914 26.2678 153.403C26.2989 153.892 26.426 154.37 26.6419 154.81C26.8578 155.25 27.1582 155.643 27.5261 155.967" fill="#231F20"></path>
    <path d="M34.246 161.878C34.7997 162.365 35.4854 162.677 36.2165 162.774C36.9475 162.872 37.6911 162.751 38.3531 162.426C39.0152 162.101 39.566 161.587 39.9359 160.949C40.3059 160.311 40.4784 159.577 40.4316 158.841C40.3848 158.105 40.1208 157.399 39.673 156.813C39.2252 156.227 38.6137 155.787 37.9158 155.549C37.2179 155.31 36.465 155.284 35.7522 155.473C35.0394 155.663 34.3987 156.059 33.9112 156.613C33.5873 156.98 33.3391 157.408 33.1806 157.872C33.0222 158.335 32.9566 158.826 32.9877 159.315C33.0188 159.803 33.146 160.281 33.3619 160.721C33.5778 161.161 33.8782 161.554 34.246 161.878" fill="#231F20"></path>
    <path d="M33.484 150.297C32.9968 150.851 32.6847 151.536 32.5872 152.268C32.4897 152.999 32.6111 153.742 32.9361 154.404C33.2611 155.066 33.7751 155.617 34.4131 155.987C35.0512 156.357 35.7845 156.529 36.5206 156.483C37.2566 156.436 37.9622 156.172 38.5483 155.724C39.1343 155.276 39.5744 154.665 39.8129 153.967C40.0514 153.269 40.0776 152.516 39.8883 151.803C39.6989 151.09 39.3025 150.45 38.7491 149.962C38.3815 149.638 37.9536 149.39 37.49 149.232C37.0264 149.073 36.5361 149.008 36.0472 149.039C35.5582 149.07 35.0802 149.197 34.6404 149.413C34.2006 149.629 33.8077 149.929 33.484 150.297" fill="#231F20"></path>
    <path d="M27.5955 157.029C27.1083 157.582 26.7962 158.268 26.6986 158.999C26.6011 159.73 26.7225 160.474 27.0475 161.136C27.3726 161.798 27.8866 162.348 28.5246 162.718C29.1626 163.088 29.896 163.261 30.632 163.214C31.3681 163.167 32.0737 162.903 32.6597 162.455C33.2457 162.008 33.6858 161.396 33.9243 160.698C34.1628 160 34.1891 159.247 33.9997 158.535C33.8104 157.822 33.4139 157.181 32.8605 156.694C32.4929 156.37 32.0651 156.122 31.6015 155.963C31.1379 155.805 30.6476 155.739 30.1586 155.77C29.6697 155.801 29.1916 155.928 28.7519 156.144C28.3121 156.36 27.9191 156.661 27.5955 157.029" fill="#231F20"></path>
    <path d="M33.0712 152.669L29.5387 156.681L33.1439 159.855L36.6764 155.843L33.0712 152.669Z" fill="#231F20"></path>
    <path d="M86.7928 192.879C86.7928 193.617 86.5741 194.338 86.1643 194.951C85.7545 195.565 85.1721 196.043 84.4906 196.325C83.8091 196.607 83.0593 196.681 82.3358 196.537C81.6124 196.393 80.9479 196.038 80.4263 195.516C79.9047 194.995 79.5495 194.33 79.4056 193.607C79.2617 192.883 79.3356 192.134 79.6179 191.452C79.9001 190.771 80.3782 190.188 80.9915 189.778C81.6048 189.369 82.3258 189.15 83.0634 189.15C83.5532 189.15 84.0381 189.246 84.4906 189.434C84.9431 189.621 85.3542 189.896 85.7005 190.242C86.0468 190.589 86.3215 191 86.509 191.452C86.6964 191.905 86.7928 192.39 86.7928 192.879Z" fill="#231F20"></path>
    <path d="M86.7928 201.828C86.7928 202.565 86.5741 203.286 86.1643 203.9C85.7545 204.513 85.1721 204.991 84.4906 205.273C83.8091 205.555 83.0593 205.629 82.3358 205.485C81.6124 205.341 80.9479 204.986 80.4263 204.465C79.9047 203.943 79.5495 203.279 79.4056 202.555C79.2617 201.832 79.3356 201.082 79.6179 200.4C79.9001 199.719 80.3782 199.136 80.9915 198.727C81.6048 198.317 82.3258 198.098 83.0634 198.098C83.5532 198.098 84.0381 198.195 84.4906 198.382C84.9431 198.569 85.3542 198.844 85.7005 199.19C86.0468 199.537 86.3215 199.948 86.509 200.4C86.6964 200.853 86.7928 201.338 86.7928 201.828" fill="#231F20"></path>
    <path d="M86.7928 192.879C86.7928 193.617 86.5741 194.338 86.1643 194.951C85.7545 195.565 85.1721 196.043 84.4906 196.325C83.8091 196.607 83.0593 196.681 82.3358 196.537C81.6124 196.393 80.9479 196.038 80.4263 195.516C79.9047 194.995 79.5495 194.33 79.4056 193.607C79.2617 192.883 79.3356 192.134 79.6179 191.452C79.9001 190.771 80.3782 190.188 80.9915 189.778C81.6048 189.369 82.3258 189.15 83.0634 189.15C83.5532 189.15 84.0381 189.246 84.4906 189.434C84.9431 189.621 85.3542 189.896 85.7005 190.242C86.0468 190.589 86.3215 191 86.509 191.452C86.6964 191.905 86.7928 192.39 86.7928 192.879Z" fill="#231F20"></path>
    <path d="M86.7928 201.828C86.7928 202.565 86.5741 203.286 86.1643 203.9C85.7545 204.513 85.1721 204.991 84.4906 205.273C83.8091 205.555 83.0593 205.629 82.3358 205.485C81.6124 205.341 80.9479 204.986 80.4263 204.465C79.9047 203.943 79.5495 203.279 79.4056 202.555C79.2617 201.832 79.3356 201.082 79.6179 200.4C79.9001 199.719 80.3782 199.136 80.9915 198.727C81.6048 198.317 82.3258 198.098 83.0634 198.098C83.5532 198.098 84.0381 198.195 84.4906 198.382C84.9431 198.569 85.3542 198.844 85.7005 199.19C86.0468 199.537 86.3215 199.948 86.509 200.4C86.6964 200.853 86.7928 201.338 86.7928 201.828" fill="#231F20"></path>
    <path d="M78.5834 193.63C79.321 193.63 80.0421 193.849 80.6554 194.259C81.2687 194.668 81.7467 195.251 82.029 195.932C82.3112 196.614 82.3851 197.364 82.2412 198.087C82.0973 198.811 81.7421 199.475 81.2205 199.997C80.699 200.518 80.0344 200.873 79.311 201.017C78.5876 201.161 77.8377 201.087 77.1562 200.805C76.4748 200.523 75.8923 200.045 75.4825 199.432C75.0727 198.818 74.854 198.097 74.854 197.36C74.854 196.87 74.9505 196.385 75.1379 195.932C75.3253 195.48 75.6 195.069 75.9463 194.722C76.2926 194.376 76.7038 194.101 77.1562 193.914C77.6087 193.727 78.0937 193.63 78.5834 193.63Z" fill="#231F20"></path>
    <path d="M87.5318 193.63C88.2694 193.63 88.9905 193.849 89.6038 194.259C90.2171 194.668 90.6951 195.251 90.9773 195.932C91.2596 196.614 91.3335 197.364 91.1896 198.087C91.0457 198.811 90.6905 199.475 90.1689 199.997C89.6473 200.518 88.9828 200.873 88.2594 201.017C87.5359 201.161 86.7861 201.087 86.1046 200.805C85.4231 200.523 84.8407 200.045 84.4309 199.432C84.0211 198.818 83.8024 198.097 83.8024 197.36C83.8024 196.37 84.1953 195.422 84.8947 194.722C85.5941 194.023 86.5427 193.63 87.5318 193.63" fill="#231F20"></path>
    <path d="M86.0077 194.865H80.6503V199.669H86.0077V194.865Z" fill="#231F20"></path>
    <path d="M86.7928 253.832C86.7928 254.569 86.5741 255.29 86.1643 255.904C85.7545 256.517 85.1721 256.995 84.4906 257.277C83.8091 257.56 83.0593 257.633 82.3358 257.489C81.6124 257.346 80.9479 256.99 80.4263 256.469C79.9047 255.947 79.5495 255.283 79.4056 254.559C79.2617 253.836 79.3356 253.086 79.6179 252.405C79.9001 251.723 80.3782 251.141 80.9915 250.731C81.6048 250.321 82.3258 250.102 83.0634 250.102C83.5532 250.102 84.0381 250.199 84.4906 250.386C84.9431 250.574 85.3542 250.848 85.7005 251.195C86.0468 251.541 86.3215 251.952 86.509 252.405C86.6964 252.857 86.7928 253.342 86.7928 253.832" fill="#231F20"></path>
    <path d="M86.7928 262.78C86.7928 263.518 86.5741 264.239 86.1643 264.852C85.7545 265.465 85.1721 265.943 84.4906 266.226C83.8091 266.508 83.0593 266.582 82.3358 266.438C81.6124 266.294 80.9479 265.939 80.4263 265.417C79.9047 264.896 79.5495 264.231 79.4056 263.508C79.2617 262.784 79.3356 262.034 79.6179 261.353C79.9001 260.672 80.3782 260.089 80.9915 259.679C81.6048 259.27 82.3258 259.051 83.0634 259.051C83.5532 259.051 84.0381 259.147 84.4906 259.335C84.9431 259.522 85.3542 259.797 85.7005 260.143C86.0468 260.489 86.3215 260.901 86.509 261.353C86.6964 261.805 86.7928 262.29 86.7928 262.78Z" fill="#231F20"></path>
    <path d="M86.7928 253.832C86.7928 254.569 86.5741 255.29 86.1643 255.904C85.7545 256.517 85.1721 256.995 84.4906 257.277C83.8091 257.56 83.0593 257.633 82.3358 257.489C81.6124 257.346 80.9479 256.99 80.4263 256.469C79.9047 255.947 79.5495 255.283 79.4056 254.559C79.2617 253.836 79.3356 253.086 79.6179 252.405C79.9001 251.723 80.3782 251.141 80.9915 250.731C81.6048 250.321 82.3258 250.102 83.0634 250.102C83.5532 250.102 84.0381 250.199 84.4906 250.386C84.9431 250.574 85.3542 250.848 85.7005 251.195C86.0468 251.541 86.3215 251.952 86.509 252.405C86.6964 252.857 86.7928 253.342 86.7928 253.832" fill="#231F20"></path>
    <path d="M86.7928 262.78C86.7928 263.518 86.5741 264.239 86.1643 264.852C85.7545 265.465 85.1721 265.943 84.4906 266.226C83.8091 266.508 83.0593 266.582 82.3358 266.438C81.6124 266.294 80.9479 265.939 80.4263 265.417C79.9047 264.896 79.5495 264.231 79.4056 263.508C79.2617 262.784 79.3356 262.034 79.6179 261.353C79.9001 260.672 80.3782 260.089 80.9915 259.679C81.6048 259.27 82.3258 259.051 83.0634 259.051C83.5532 259.051 84.0381 259.147 84.4906 259.335C84.9431 259.522 85.3542 259.797 85.7005 260.143C86.0468 260.489 86.3215 260.901 86.509 261.353C86.6964 261.805 86.7928 262.29 86.7928 262.78Z" fill="#231F20"></path>
    <path d="M78.5834 254.583C79.321 254.583 80.0421 254.801 80.6554 255.211C81.2687 255.621 81.7467 256.204 82.029 256.885C82.3112 257.566 82.3851 258.316 82.2412 259.04C82.0973 259.763 81.7421 260.428 81.2205 260.949C80.699 261.471 80.0344 261.826 79.311 261.97C78.5876 262.114 77.8377 262.04 77.1562 261.758C76.4748 261.475 75.8923 260.997 75.4825 260.384C75.0727 259.771 74.854 259.05 74.854 258.312C74.854 257.822 74.9505 257.337 75.1379 256.885C75.3253 256.433 75.6 256.021 75.9463 255.675C76.2926 255.329 76.7038 255.054 77.1562 254.867C77.6087 254.679 78.0937 254.583 78.5834 254.583Z" fill="#231F20"></path>
    <path d="M87.5318 254.583C88.2694 254.583 88.9905 254.801 89.6038 255.211C90.2171 255.621 90.6951 256.204 90.9773 256.885C91.2596 257.566 91.3335 258.316 91.1896 259.04C91.0457 259.763 90.6905 260.428 90.1689 260.949C89.6473 261.471 88.9828 261.826 88.2594 261.97C87.5359 262.114 86.7861 262.04 86.1046 261.758C85.4231 261.475 84.8407 260.997 84.4309 260.384C84.0211 259.771 83.8024 259.05 83.8024 258.312C83.8024 257.323 84.1953 256.374 84.8947 255.675C85.5941 254.976 86.5427 254.583 87.5318 254.583" fill="#231F20"></path>
    <path d="M86.0077 255.818H80.6503V260.621H86.0077V255.818Z" fill="#231F20"></path>
  </g>
  <defs>
    <clipPath id="clip0">
      <rect width="1037" height="337" fill="white"></rect>
    </clipPath>
  </defs>
</svg>